<?xml version="1.0" encoding="UTF-8"?>
<svg version="1.1" xmlns="http://www.w3.org/2000/svg" width="300" height="132">
<path d="M0 0 C99 0 198 0 300 0 C300 43.56 300 87.12 300 132 C201 132 102 132 0 132 C0 88.44 0 44.88 0 0 Z " fill="#FBFCFC" transform="translate(0,0)"/>
<path d="M0 0 C5.19635121 2.5981756 5.95885578 5.46618411 8.33984375 10.56640625 C9.75920476 13.23635904 9.75920476 13.23635904 12.4609375 13.57421875 C13.29882812 13.71472656 14.13671875 13.85523438 15 14 C16.94921875 15.890625 16.94921875 15.890625 18.6875 18.25 C19.26886719 19.01828125 19.85023437 19.7865625 20.44921875 20.578125 C21.9958054 22.99344924 22.94502053 25.34317416 24 28 C25.24035918 29.79761054 25.24035918 29.79761054 26.625 31.3125 C27.40875 32.199375 28.1925 33.08625 29 34 C24.71961572 33.50124218 22.85672506 32.31565568 19.9375 29.1875 C19.28652344 28.50042969 18.63554688 27.81335938 17.96484375 27.10546875 C17.31644531 26.41066406 16.66804688 25.71585938 16 25 C14.67129625 23.6620531 13.33928562 22.32735435 12 21 C20.10288793 32.00780043 20.10288793 32.00780043 31 40 C29.3125 40.8125 29.3125 40.8125 27 41 C24.6875 38.9375 24.6875 38.9375 22 36 C20.82933435 34.91897991 19.64113863 33.85668223 18.4375 32.8125 C17.60025391 32.07966797 17.60025391 32.07966797 16.74609375 31.33203125 C14.91776673 29.93726723 13.08377469 28.96209291 11 28 C11 27.34 11 26.68 11 26 C10.34 26 9.68 26 9 26 C9 25.01 9 24.02 9 23 C7.824375 22.7834375 7.824375 22.7834375 6.625 22.5625 C4 22 4 22 2 21 C1.505 22.485 1.505 22.485 1 24 C-4.46511628 29 -4.46511628 29 -7 29 C-5.85455505 26.08432196 -4.89364122 24.91643239 -2.375 22.9375 C-1.59125 22.298125 -0.8075 21.65875 0 21 C0 20.01 0 19.02 0 18 C-0.48210937 18.433125 -0.96421875 18.86625 -1.4609375 19.3125 C-2.09257813 19.869375 -2.72421875 20.42625 -3.375 21 C-4.00148437 21.556875 -4.62796875 22.11375 -5.2734375 22.6875 C-7 24 -7 24 -9 24 C-9.2475 24.7425 -9.495 25.485 -9.75 26.25 C-11.09147301 29.20124062 -12.60905526 30.84814974 -15 33 C-11.59679066 33.67673447 -11.59679066 33.67673447 -8 34 C-7.34 33.34 -6.68 32.68 -6 32 C-3.31707769 31.93808641 -0.79121758 32.00110072 1.875 32.1875 C2.59558594 32.21908203 3.31617188 32.25066406 4.05859375 32.28320312 C8.31467348 32.55361703 10.84165758 33.11857386 14 36 C14.825 36.28875 15.65 36.5775 16.5 36.875 C19.67283493 38.30277572 20.87744378 40.28047484 23 43 C25.61857695 44.78962819 25.61857695 44.78962819 28 46 C26.3125 46.75 26.3125 46.75 24 47 C20.87823497 44.91882331 19.08898911 43.13348366 17 40 C16.01 40 15.02 40 14 40 C14.33 40.99 14.66 41.98 15 43 C14.72428861 45.00875442 14.39764263 47.01178687 14 49 C15.6396875 48.938125 15.6396875 48.938125 17.3125 48.875 C21 49 21 49 24 51 C28.65417169 51.34222445 28.65417169 51.34222445 33 50 C32.4121875 48.63875 32.4121875 48.63875 31.8125 47.25 C31 44 31 44 32.25 41.625 C34 40 34 40 36 40 C35.979375 38.72125 35.95875 37.4425 35.9375 36.125 C35.875 32.25 35.875 32.25 37 30 C40 31 40 31 41.1484375 32.703125 C42.15893578 35.42868917 42.41809312 37.85330369 42.625 40.75 C42.73714844 42.22726563 42.73714844 42.22726563 42.8515625 43.734375 C42.90054688 44.48203125 42.94953125 45.2296875 43 46 C43.99 46 44.98 46 46 46 C46.33 43.69 46.66 41.38 47 39 C48.485 39.99 48.485 39.99 50 41 C50.1875 43.625 50.1875 43.625 50 46 C50.66 46 51.32 46 52 46 C52.99 48.97 52.99 48.97 54 52 C53.34 52 52.68 52 52 52 C52 52.66 52 53.32 52 54 C53.65 54.33 55.3 54.66 57 55 C56.505 55.99 56.505 55.99 56 57 C54.68 57 53.36 57 52 57 C51.67 58.65 51.34 60.3 51 62 C52.98 62.495 52.98 62.495 55 63 C55 63.66 55 64.32 55 65 C48.4 65 41.8 65 35 65 C35 65.66 35 66.32 35 67 C37.64 67.66 40.28 68.32 43 69 C43 69.66 43 70.32 43 71 C36.4 71 29.8 71 23 71 C23 71.99 23 72.98 23 74 C24.65 74.33 26.3 74.66 28 75 C28 75.33 28 75.66 28 76 C19.585 76.495 19.585 76.495 11 77 C11 77.99 11 78.98 11 80 C12.65 80.66 14.3 81.32 16 82 C16 82.33 16 82.66 16 83 C7.09 83 -1.82 83 -11 83 C-10.01 82.34 -9.02 81.68 -8 81 C-8.49756092 78.24358584 -8.49756092 78.24358584 -10 76 C-11.41327947 75.84379445 -12.8335459 75.74943827 -14.25390625 75.68359375 C-15.10791016 75.64169922 -15.96191406 75.59980469 -16.84179688 75.55664062 C-17.73962891 75.51732422 -18.63746094 75.47800781 -19.5625 75.4375 C-20.46419922 75.39431641 -21.36589844 75.35113281 -22.29492188 75.30664062 C-24.52978485 75.20021858 -26.76476308 75.09820012 -29 75 C-28.4225 74.5875 -27.845 74.175 -27.25 73.75 C-24.591719 71.75709864 -24.591719 71.75709864 -21 68 C-27.93 68 -34.86 68 -42 68 C-39.1709277 65.1709277 -38.61855575 64.62388892 -35 64 C-35 63.34 -35 62.68 -35 62 C-42.26 62 -49.52 62 -57 62 C-57 61.34 -57 60.68 -57 60 C-53.535 59.505 -53.535 59.505 -50 59 C-50.495 57.515 -50.495 57.515 -51 56 C-52.65 55.67 -54.3 55.34 -56 55 C-55.35729017 49.0870696 -53.80996216 43.65755469 -52 38 C-51.34 38 -50.68 38 -50 38 C-50 36.35 -50 34.7 -50 33 C-49.34 33 -48.68 33 -48 33 C-47.86722656 33.77085938 -47.73445313 34.54171875 -47.59765625 35.3359375 C-47.42105469 36.33882812 -47.24445312 37.34171875 -47.0625 38.375 C-46.88847656 39.37273437 -46.71445312 40.37046875 -46.53515625 41.3984375 C-46.12287938 43.96909656 -46.12287938 43.96909656 -45 46 C-45.27942455 47.67654729 -45.60828247 49.34608154 -46 51 C-44.35 51 -42.7 51 -41 51 C-40.34 49.02 -39.68 47.04 -39 45 C-38.34 45.33 -37.68 45.66 -37 46 C-37 47.65 -37 49.3 -37 51 C-36.34 51 -35.68 51 -35 51 C-35 51.66 -35 52.32 -35 53 C-32.53044606 52.58377402 -32.53044606 52.58377402 -30 51 C-28.65780705 48.4309588 -27.79574295 45.78186561 -27 43 C-27.495 42.505 -27.495 42.505 -28 42 C-28.45375 42.495 -28.9075 42.99 -29.375 43.5 C-31 45 -31 45 -33 45 C-30.77508526 39.72174482 -26.48463877 36.39562025 -22 33 C-20.01548229 32.28856912 -18.01797888 31.61008664 -16 31 C-13.75808599 28.67678298 -13.75808599 28.67678298 -12 26 C-11.04175747 24.63634717 -10.05278825 23.29205831 -9 22 C-8.34 22 -7.68 22 -7 22 C-6.731875 21.195625 -6.46375 20.39125 -6.1875 19.5625 C-5.5996875 18.2940625 -5.5996875 18.2940625 -5 17 C-4.01 16.67 -3.02 16.34 -2 16 C-1.34 10.72 -0.68 5.44 0 0 Z " fill="#055255" transform="translate(70,26)"/>
<path d="M0 0 C5.19635121 2.5981756 5.95885578 5.46618411 8.33984375 10.56640625 C9.75920476 13.23635904 9.75920476 13.23635904 12.4609375 13.57421875 C13.29882812 13.71472656 14.13671875 13.85523438 15 14 C16.94921875 15.890625 16.94921875 15.890625 18.6875 18.25 C19.26886719 19.01828125 19.85023437 19.7865625 20.44921875 20.578125 C21.9958054 22.99344924 22.94502053 25.34317416 24 28 C25.24035918 29.79761054 25.24035918 29.79761054 26.625 31.3125 C27.40875 32.199375 28.1925 33.08625 29 34 C24.71961572 33.50124218 22.85672506 32.31565568 19.9375 29.1875 C19.28652344 28.50042969 18.63554688 27.81335938 17.96484375 27.10546875 C17.31644531 26.41066406 16.66804688 25.71585938 16 25 C14.67129625 23.6620531 13.33928562 22.32735435 12 21 C20.10288793 32.00780043 20.10288793 32.00780043 31 40 C29.3125 40.8125 29.3125 40.8125 27 41 C24.6875 38.9375 24.6875 38.9375 22 36 C20.82933435 34.91897991 19.64113863 33.85668223 18.4375 32.8125 C17.60025391 32.07966797 17.60025391 32.07966797 16.74609375 31.33203125 C14.91776673 29.93726723 13.08377469 28.96209291 11 28 C11 27.34 11 26.68 11 26 C10.34 26 9.68 26 9 26 C9 25.01 9 24.02 9 23 C7.824375 22.7834375 7.824375 22.7834375 6.625 22.5625 C4 22 4 22 2 21 C1.505 22.485 1.505 22.485 1 24 C-4.46511628 29 -4.46511628 29 -7 29 C-5.85455505 26.08432196 -4.89364122 24.91643239 -2.375 22.9375 C-1.59125 22.298125 -0.8075 21.65875 0 21 C0 20.01 0 19.02 0 18 C-0.48210937 18.433125 -0.96421875 18.86625 -1.4609375 19.3125 C-2.09257813 19.869375 -2.72421875 20.42625 -3.375 21 C-4.00148437 21.556875 -4.62796875 22.11375 -5.2734375 22.6875 C-7 24 -7 24 -9 24 C-9.2475 24.7425 -9.495 25.485 -9.75 26.25 C-11.09147301 29.20124062 -12.60905526 30.84814974 -15 33 C-11.59679066 33.67673447 -11.59679066 33.67673447 -8 34 C-7.34 33.34 -6.68 32.68 -6 32 C-3.31707769 31.93808641 -0.79121758 32.00110072 1.875 32.1875 C2.59558594 32.21908203 3.31617188 32.25066406 4.05859375 32.28320312 C8.31467348 32.55361703 10.84165758 33.11857386 14 36 C14.825 36.28875 15.65 36.5775 16.5 36.875 C19.67283493 38.30277572 20.87744378 40.28047484 23 43 C25.61857695 44.78962819 25.61857695 44.78962819 28 46 C26.3125 46.75 26.3125 46.75 24 47 C20.87823497 44.91882331 19.08898911 43.13348366 17 40 C16.01 40 15.02 40 14 40 C14.33 40.99 14.66 41.98 15 43 C14.72428861 45.00875442 14.39764263 47.01178687 14 49 C16.31 49 18.62 49 21 49 C21.33 49.66 21.66 50.32 22 51 C20.6682373 50.99214478 20.6682373 50.99214478 19.30957031 50.98413086 C16.00715482 50.96706132 12.70478641 50.95453637 9.40234375 50.94506836 C7.97460184 50.94004794 6.54686504 50.93323028 5.11914062 50.92456055 C3.06378921 50.91239447 1.00850593 50.90674872 -1.046875 50.90234375 C-2.28276367 50.89710693 -3.51865234 50.89187012 -4.79199219 50.88647461 C-7.44479136 50.98035221 -9.53626529 51.05547434 -12 52 C-14.24850483 54.47661498 -14.24850483 54.47661498 -16 57 C-14.35 57.33 -12.7 57.66 -11 58 C-11 58.66 -11 59.32 -11 60 C-11.61746094 60.01417969 -12.23492187 60.02835938 -12.87109375 60.04296875 C-17.86959199 60.32446713 -21.40029923 60.95658711 -25.6875 63.625 C-28.72922544 65.51390068 -30.48123452 66.35184721 -34.0625 65.8125 C-35.031875 65.544375 -36.00125 65.27625 -37 65 C-36.01 64.505 -36.01 64.505 -35 64 C-35 63.34 -35 62.68 -35 62 C-42.26 62 -49.52 62 -57 62 C-57 61.34 -57 60.68 -57 60 C-53.535 59.505 -53.535 59.505 -50 59 C-50.495 57.515 -50.495 57.515 -51 56 C-52.65 55.67 -54.3 55.34 -56 55 C-55.35729017 49.0870696 -53.80996216 43.65755469 -52 38 C-51.34 38 -50.68 38 -50 38 C-50 36.35 -50 34.7 -50 33 C-49.34 33 -48.68 33 -48 33 C-47.86722656 33.77085938 -47.73445313 34.54171875 -47.59765625 35.3359375 C-47.42105469 36.33882812 -47.24445312 37.34171875 -47.0625 38.375 C-46.88847656 39.37273437 -46.71445312 40.37046875 -46.53515625 41.3984375 C-46.12287938 43.96909656 -46.12287938 43.96909656 -45 46 C-45.27942455 47.67654729 -45.60828247 49.34608154 -46 51 C-44.35 51 -42.7 51 -41 51 C-40.34 49.02 -39.68 47.04 -39 45 C-38.34 45.33 -37.68 45.66 -37 46 C-37 47.65 -37 49.3 -37 51 C-36.34 51 -35.68 51 -35 51 C-35 51.66 -35 52.32 -35 53 C-32.53044606 52.58377402 -32.53044606 52.58377402 -30 51 C-28.65780705 48.4309588 -27.79574295 45.78186561 -27 43 C-27.495 42.505 -27.495 42.505 -28 42 C-28.45375 42.495 -28.9075 42.99 -29.375 43.5 C-31 45 -31 45 -33 45 C-30.77508526 39.72174482 -26.48463877 36.39562025 -22 33 C-20.01548229 32.28856912 -18.01797888 31.61008664 -16 31 C-13.75808599 28.67678298 -13.75808599 28.67678298 -12 26 C-11.04175747 24.63634717 -10.05278825 23.29205831 -9 22 C-8.34 22 -7.68 22 -7 22 C-6.731875 21.195625 -6.46375 20.39125 -6.1875 19.5625 C-5.5996875 18.2940625 -5.5996875 18.2940625 -5 17 C-4.01 16.67 -3.02 16.34 -2 16 C-1.34 10.72 -0.68 5.44 0 0 Z " fill="#0E6165" transform="translate(70,26)"/>
<path d="M0 0 C3.3 0 6.6 0 10 0 C10 3.63 10 7.26 10 11 C10.99 11 11.98 11 13 11 C13.28875 10.0925 13.5775 9.185 13.875 8.25 C15 5 15 5 17 1 C20.3 1 23.6 1 27 1 C25.92575651 3.80955989 24.79100379 6.37154882 23.3125 9 C21.55233758 12.24342448 21.55233758 12.24342448 23 17 C24.65 19.97 26.3 22.94 28 26 C28.33 17.42 28.66 8.84 29 0 C35.6 0 42.2 0 49 0 C49 2.31 49 4.62 49 7 C45.7 7 42.4 7 39 7 C39 8.32 39 9.64 39 11 C41.97 11 44.94 11 48 11 C48 12.98 48 14.96 48 17 C45.03 17 42.06 17 39 17 C39 18.65 39 20.3 39 22 C42.3 22 45.6 22 49 22 C49 24.31 49 26.62 49 29 C38.77 29 28.54 29 18 29 C16.35 25.7 14.7 22.4 13 19 C12.01 18.67 11.02 18.34 10 18 C10 21.63 10 25.26 10 29 C6.7 29 3.4 29 0 29 C0 19.43 0 9.86 0 0 Z " fill="#216E72" transform="translate(193,19)"/>
<path d="M0 0 C2.64 0 5.28 0 8 0 C8 7.26 8 14.52 8 22 C11.3 22 14.6 22 18 22 C18.33 22.33 18.66 22.66 19 23 C21.97 11.615 21.97 11.615 25 0 C29.62 0 34.24 0 39 0 C40.17324446 3.9148055 41.3388305 7.83161336 42.5 11.75 C42.83386719 12.86117187 43.16773438 13.97234375 43.51171875 15.1171875 C43.82753906 16.18710938 44.14335937 17.25703125 44.46875 18.359375 C44.76201172 19.34389648 45.05527344 20.32841797 45.35742188 21.34277344 C46 24 46 24 46 28 C42.7 28 39.4 28 36 28 C36 26.02 36 24.04 36 22 C33.36 22 30.72 22 28 22 C28 23.98 28 25.96 28 28 C18.76 28 9.52 28 0 28 C0 18.76 0 9.52 0 0 Z " fill="#0C0C0C" transform="translate(156,83)"/>
<path d="M0 0 C2.97 0 5.94 0 9 0 C9.66 3.96 10.32 7.92 11 12 C11.33 12 11.66 12 12 12 C12.66 9.36 13.32 6.72 14 4 C16.97 4 19.94 4 23 4 C24.99785435 8.1205746 25.17835515 11.45194365 25 16 C25.66 16 26.32 16 27 16 C27.33 10.72 27.66 5.44 28 0 C30.97 0 33.94 0 37 0 C36.38277416 9.56700056 34.1798659 18.69247957 32 28 C28.7 28 25.4 28 22 28 C21.01 23.71 20.02 19.42 19 15 C17.68 19.29 16.36 23.58 15 28 C12.03 28 9.06 28 6 28 C0 5.89320388 0 5.89320388 0 0 Z " fill="#0C0C0C" transform="translate(201,83)"/>
<path d="M0 0 C2.97 0 5.94 0 9 0 C9 9.57 9 19.14 9 29 C6.36 29 3.72 29 1 29 C0.67 24.38 0.34 19.76 0 15 C-1.32 17.64 -2.64 20.28 -4 23 C-6.3125 22.8125 -6.3125 22.8125 -9 22 C-9.99 20.35 -10.98 18.7 -12 17 C-12.33 20.96 -12.66 24.92 -13 29 C-15.64 29 -18.28 29 -21 29 C-21 19.76 -21 10.52 -21 1 C-18.03 1 -15.06 1 -12 1 C-10.02 4.63 -8.04 8.26 -6 12 C-4.02 8.04 -2.04 4.08 0 0 Z " fill="#323D42" transform="translate(225,51)"/>
<path d="M0 0 C3 1 3 1 4.1484375 2.703125 C5.15893578 5.42868917 5.41809312 7.85330369 5.625 10.75 C5.69976562 11.73484375 5.77453125 12.7196875 5.8515625 13.734375 C5.90054688 14.48203125 5.94953125 15.2296875 6 16 C6.99 16 7.98 16 9 16 C9.33 13.69 9.66 11.38 10 9 C10.99 9.66 11.98 10.32 13 11 C13.1875 13.625 13.1875 13.625 13 16 C13.66 16 14.32 16 15 16 C15.66 17.98 16.32 19.96 17 22 C16.34 22 15.68 22 15 22 C15 22.66 15 23.32 15 24 C16.65 24.33 18.3 24.66 20 25 C19.67 25.66 19.34 26.32 19 27 C17.68 27 16.36 27 15 27 C14.505 29.475 14.505 29.475 14 32 C15.32 32.33 16.64 32.66 18 33 C18 33.66 18 34.32 18 35 C11.4 35 4.8 35 -2 35 C-2 35.66 -2 36.32 -2 37 C-2.66 37 -3.32 37 -4 37 C-4 36.01 -4 35.02 -4 34 C-4.99 34 -5.98 34 -7 34 C-7 33.34 -7 32.68 -7 32 C-6.38253906 31.82984375 -5.76507813 31.6596875 -5.12890625 31.484375 C0.8338204 29.77814576 6.40114631 27.66418883 12 25 C9.87436897 25.11376617 7.7494739 25.24135631 5.625 25.375 C4.44164062 25.44460937 3.25828125 25.51421875 2.0390625 25.5859375 C-1.10562319 25.70217346 -1.10562319 25.70217346 -3 28 C-5.4609375 28.34375 -5.4609375 28.34375 -8.375 28.5 C-12.18212036 28.7052356 -14.64611347 29.22785908 -18 31 C-20.25 30.625 -20.25 30.625 -22 30 C-21.34 29.67 -20.68 29.34 -20 29 C-26.94856238 28.51521658 -33.29686769 30.30888296 -40 32 C-40.79019531 32.19722656 -41.58039063 32.39445312 -42.39453125 32.59765625 C-43.18923828 32.79681641 -43.18923828 32.79681641 -44 33 C-44 32.34 -44 31.68 -44 31 C-42.845 30.54625 -41.69 30.0925 -40.5 29.625 C-39.8503125 29.36976562 -39.200625 29.11453125 -38.53125 28.8515625 C-31.26980291 26.40866826 -24.62296418 25.6273464 -17 25.375 C-16.03449219 25.33632812 -15.06898437 25.29765625 -14.07421875 25.2578125 C-11.7163256 25.16443059 -9.35842244 25.07865671 -7 25 C-9.64 24.01 -12.28 23.02 -15 22 C-12.06054016 20.53027008 -9.25044564 21 -6 21 C-5.34 20.67 -4.68 20.34 -4 20 C-4.5878125 18.63875 -4.5878125 18.63875 -5.1875 17.25 C-6 14 -6 14 -4.75 11.625 C-3 10 -3 10 -1 10 C-1.020625 8.72125 -1.04125 7.4425 -1.0625 6.125 C-1.125 2.25 -1.125 2.25 0 0 Z " fill="#0F6165" transform="translate(107,56)"/>
<path d="M0 0 C0.99 0.33 1.98 0.66 3 1 C2.690625 1.763125 2.38125 2.52625 2.0625 3.3125 C0.86293802 7.47568571 0.66870171 11.29592499 0.5390625 15.609375 C0.36117187 16.39828125 0.18328125 17.1871875 0 18 C-1.9765625 19.2109375 -1.9765625 19.2109375 -4 20 C-4.70151152 21.3153341 -5.36525925 22.65117592 -6 24 C-7.30973998 25.3565164 -8.64802142 26.68557638 -10 28 C-10.96011204 29.2069205 -11.91831097 30.41536439 -12.875 31.625 C-15.6858778 34.9545934 -17.8605924 35.62019747 -22 37 C-27.77651427 41.32219847 -27.77651427 41.32219847 -32 47 C-29.69 45.35 -27.38 43.7 -25 42 C-25.25620684 43.6065676 -25.53055871 45.2102483 -25.8125 46.8125 C-25.96332031 47.70582031 -26.11414062 48.59914062 -26.26953125 49.51953125 C-27.07226811 52.24540241 -27.68288613 53.37423945 -30 55 C-31.32 55 -32.64 55 -34 55 C-34 54.34 -34 53.68 -34 53 C-34.66 53 -35.32 53 -36 53 C-36.33 51.35 -36.66 49.7 -37 48 C-37.66 48 -38.32 48 -39 48 C-38.43040847 44.37386801 -37.07625466 42.74482259 -34.4375 40.25 C-33.47650391 39.32960938 -33.47650391 39.32960938 -32.49609375 38.390625 C-32.00238281 37.93171875 -31.50867187 37.4728125 -31 37 C-31.61359375 37.30679688 -32.2271875 37.61359375 -32.859375 37.9296875 C-35.9296875 39.46484375 -35.9296875 39.46484375 -39 41 C-38.25 39.0625 -38.25 39.0625 -37 37 C-35.66666667 36.66666667 -34.33333333 36.33333333 -33 36 C-32.29605388 34.68596724 -31.63654342 33.3479743 -31 32 C-29.3563186 30.31066078 -27.6857124 28.64740076 -26 27 C-24.45385144 25.13529822 -22.93001388 23.25723381 -21.4296875 21.35546875 C-20 20 -20 20 -17 20 C-17 20.66 -17 21.32 -17 22 C-16.34 22 -15.68 22 -15 22 C-15 21.34 -15 20.68 -15 20 C-14.4225 19.505 -13.845 19.01 -13.25 18.5 C-10.40401305 15.33779227 -9.43848909 12.14950021 -8.125 8.14453125 C-7 6 -7 6 -4.984375 5.359375 C-4.32953125 5.24078125 -3.6746875 5.1221875 -3 5 C-1.22851628 2.52066803 -1.22851628 2.52066803 0 0 Z " fill="#EEF4F4" transform="translate(69,24)"/>
<path d="M0 0 C4.62 0 9.24 0 14 0 C15.17139509 4.10287108 16.33730748 8.2071629 17.5 12.3125 C17.83386719 13.47974609 18.16773438 14.64699219 18.51171875 15.84960938 C18.82753906 16.96787109 19.14335937 18.08613281 19.46875 19.23828125 C19.90864258 20.7857605 19.90864258 20.7857605 20.35742188 22.36450195 C21 25 21 25 21 28 C17.7 28 14.4 28 11 28 C11 26.02 11 24.04 11 22 C8.36 22 5.72 22 3 22 C2.67 23.65 2.34 25.3 2 27 C-0.97 27 -3.94 27 -7 27 C-5.67441683 17.66156333 -2.93502964 8.92831536 0 0 Z " fill="#343E44" transform="translate(181,52)"/>
<path d="M0 0 C15.89405832 -0.8586226 15.89405832 -0.8586226 20.5 1.9375 C23.43574416 5.5337866 23.86205642 7.43940816 23.5 11.97265625 C23 14 23 14 21.1875 16.0625 C19 17 19 17 16 17 C16 17.66 16 18.32 16 19 C14.02 19 12.04 19 10 19 C10.01160156 19.63808594 10.02320313 20.27617188 10.03515625 20.93359375 C10.04417969 21.75988281 10.05320313 22.58617188 10.0625 23.4375 C10.07410156 24.26121094 10.08570313 25.08492187 10.09765625 25.93359375 C10 28 10 28 9 29 C7.1875 29.1328125 7.1875 29.1328125 5 29.125 C4.278125 29.12757812 3.55625 29.13015625 2.8125 29.1328125 C1 29 1 29 0 28 C-0.08767112 25.92737924 -0.10695873 23.85179706 -0.09765625 21.77734375 C-0.09443359 20.51728516 -0.09121094 19.25722656 -0.08789062 17.95898438 C-0.07953403 16.61848891 -0.07106907 15.27799412 -0.0625 13.9375 C-0.0574866 12.59310058 -0.05292342 11.2486994 -0.04882812 9.90429688 C-0.03699488 6.60282059 -0.02050971 3.30143197 0 0 Z " fill="#1C6C70" transform="translate(155,19)"/>
<path d="M0 0 C0.66 0 1.32 0 2 0 C2.13277344 0.77085938 2.26554687 1.54171875 2.40234375 2.3359375 C2.57894531 3.33882812 2.75554688 4.34171875 2.9375 5.375 C3.11152344 6.37273437 3.28554688 7.37046875 3.46484375 8.3984375 C3.87712062 10.96909656 3.87712062 10.96909656 5 13 C4.72057545 14.67654729 4.39171753 16.34608154 4 18 C5.65 18 7.3 18 9 18 C9.66 16.02 10.32 14.04 11 12 C11.66 12.33 12.32 12.66 13 13 C13 14.65 13 16.3 13 18 C13.66 18 14.32 18 15 18 C15.66 19.65 16.32 21.3 17 23 C16.34 23.33 15.68 23.66 15 24 C15.66 23.855625 16.32 23.71125 17 23.5625 C27.04 21.68 27.04 21.68 31 23 C33.19038423 21.62831762 33.19038423 21.62831762 35 20 C35.66 20.33 36.32 20.66 37 21 C36.01 21.99 35.02 22.98 34 24 C35.65 24.33 37.3 24.66 39 25 C39 25.66 39 26.32 39 27 C38.38253906 27.01417969 37.76507813 27.02835938 37.12890625 27.04296875 C32.13040801 27.32446713 28.59970077 27.95658711 24.3125 30.625 C21.27077456 32.51390068 19.51876548 33.35184721 15.9375 32.8125 C14.968125 32.544375 13.99875 32.27625 13 32 C13.66 31.67 14.32 31.34 15 31 C15 30.34 15 29.68 15 29 C7.74 29 0.48 29 -7 29 C-7 28.34 -7 27.68 -7 27 C-3.535 26.505 -3.535 26.505 0 26 C-0.33 25.01 -0.66 24.02 -1 23 C-2.65 22.67 -4.3 22.34 -6 22 C-5.35729017 16.0870696 -3.80996216 10.65755469 -2 5 C-1.34 5 -0.68 5 0 5 C0 3.35 0 1.7 0 0 Z " fill="#1D676A" transform="translate(20,59)"/>
<path d="M0 0 C5.94 0 11.88 0 18 0 C18 1.65 18 3.3 18 5 C15.03 5 12.06 5 9 5 C9 6.65 9 8.3 9 10 C11.97 10 14.94 10 18 10 C18 11.98 18 13.96 18 16 C15.03 16 12.06 16 9 16 C9 17.98 9 19.96 9 22 C11.97 22 14.94 22 18 22 C18 23.65 18 25.3 18 27 C12.06 27 6.12 27 0 27 C0 18.09 0 9.18 0 0 Z " fill="#075E61" transform="translate(223,20)"/>
<path d="M0 0 C6.27 0 12.54 0 19 0 C19 2.31 19 4.62 19 7 C15.37 7 11.74 7 8 7 C8 8.65 8 10.3 8 12 C11.3 12 14.6 12 18 12 C18 13.65 18 15.3 18 17 C14.7 17 11.4 17 8 17 C8 20.63 8 24.26 8 28 C5.36 28 2.72 28 0 28 C0 18.76 0 9.52 0 0 Z " fill="#343F45" transform="translate(156,51)"/>
<path d="M0 0 C2.93594771 1.05441563 3.90389219 1.83850938 5.52734375 4.56640625 C6.46798021 6.56493303 7.40547896 8.56493961 8.33984375 10.56640625 C9.75920476 13.23635904 9.75920476 13.23635904 12.4609375 13.57421875 C13.29882812 13.71472656 14.13671875 13.85523438 15 14 C16.94921875 15.890625 16.94921875 15.890625 18.6875 18.25 C19.26886719 19.01828125 19.85023437 19.7865625 20.44921875 20.578125 C21.9958054 22.99344924 22.94502053 25.34317416 24 28 C25.24035918 29.79761054 25.24035918 29.79761054 26.625 31.3125 C27.40875 32.199375 28.1925 33.08625 29 34 C24.71961572 33.50124218 22.85672506 32.31565568 19.9375 29.1875 C19.28652344 28.50042969 18.63554688 27.81335938 17.96484375 27.10546875 C17.31644531 26.41066406 16.66804688 25.71585938 16 25 C14.67129625 23.6620531 13.33928562 22.32735435 12 21 C20.10288793 32.00780043 20.10288793 32.00780043 31 40 C29.3125 40.8125 29.3125 40.8125 27 41 C24.6875 38.9375 24.6875 38.9375 22 36 C20.82933435 34.91897991 19.64113863 33.85668223 18.4375 32.8125 C17.87933594 32.32394531 17.32117188 31.83539063 16.74609375 31.33203125 C14.91776673 29.93726723 13.08377469 28.96209291 11 28 C11 27.34 11 26.68 11 26 C10.34 26 9.68 26 9 26 C9 25.01 9 24.02 9 23 C8.21625 22.855625 7.4325 22.71125 6.625 22.5625 C4 22 4 22 2 21 C1.67 21.99 1.34 22.98 1 24 C-4.46511628 29 -4.46511628 29 -7 29 C-5.88261822 26.15575547 -5.05267961 25.03687573 -2.5 23.25 C0.99249069 20.10675838 1.16332677 17.56367216 2 13 C1.34 13 0.68 13 0 13 C-1.28571429 4.57142857 -1.28571429 4.57142857 0 0 Z " fill="#136C6F" transform="translate(70,26)"/>
<path d="M0 0 C1.32 0 2.64 0 4 0 C4 28.05 4 56.1 4 85 C2.68 85 1.36 85 0 85 C0 56.95 0 28.9 0 0 Z " fill="#0B666A" transform="translate(140,23)"/>
<path d="M0 0 C2.97 0 5.94 0 9 0 C10.31626692 3.61973402 11 6.09567131 11 10 C11.66 10 12.32 10 13 10 C13.12375 9.0925 13.2475 8.185 13.375 7.25 C13.92109677 4.41029677 14.57263803 2.47409409 16 0 C18.64 0 21.28 0 24 0 C22.67034979 4.91567653 21.35051043 9.59031876 18.875 14.0625 C16.63162363 18.24956506 16.21738917 22.30439395 16 27 C13.36 27 10.72 27 8 27 C7.79375 25.700625 7.5875 24.40125 7.375 23.0625 C5.81502441 15.11350672 2.79623483 7.5797309 0 0 Z " fill="#2F3A40" transform="translate(264,52)"/>
<path d="M0 0 C2.97 0 5.94 0 9 0 C9 7.26 9 14.52 9 22 C11.97 22 14.94 22 18 22 C18 24.31 18 26.62 18 29 C12.06 29 6.12 29 0 29 C0 19.43 0 9.86 0 0 Z " fill="#394349" transform="translate(250,51)"/>
<path d="M0 0 C2.64 0.33 5.28 0.66 8 1 C3.06345733 7.70459519 3.06345733 7.70459519 -1.375 8.9375 C-2.24125 8.958125 -3.1075 8.97875 -4 9 C-3.01 9.33 -2.02 9.66 -1 10 C-1 10.99 -1 11.98 -1 13 C-0.34 13 0.32 13 1 13 C1 13.66 1 14.32 1 15 C-0.22976562 15.29003906 -0.22976562 15.29003906 -1.484375 15.5859375 C-3.10085937 15.97652344 -3.10085937 15.97652344 -4.75 16.375 C-5.81734375 16.63023438 -6.8846875 16.88546875 -7.984375 17.1484375 C-10.91302868 17.8714242 -10.91302868 17.8714242 -13.109375 19.06640625 C-15.30550593 20.15085933 -17.06691748 20.36668685 -19.5 20.5625 C-22.43895859 20.8090907 -25.15358828 21.21723678 -28 22 C-27.731875 21.505 -27.46375 21.01 -27.1875 20.5 C-25.56124507 17.0763054 -24.30484829 13.55867715 -23 10 C-22.01 10 -21.02 10 -20 10 C-19.896875 10.639375 -19.79375 11.27875 -19.6875 11.9375 C-19.460625 12.618125 -19.23375 13.29875 -19 14 C-18.01 14.33 -17.02 14.66 -16 15 C-16.061875 13.7625 -16.12375 12.525 -16.1875 11.25 C-16.3216713 8.56657396 -16.09725168 7.19181127 -14.87109375 4.7734375 C-12.26688703 2.30514971 -10.41159592 2.4687411 -6.875 2.375 C-4.91363424 2.3138543 -2.95169561 2.2039085 -1 2 C-0.67 1.34 -0.34 0.68 0 0 Z " fill="#0F6063" transform="translate(66,59)"/>
<path d="M0 0 C2.97 0 5.94 0 9 0 C10 1 10 1 10.11352539 3.68383789 C10.10828857 4.85164795 10.10305176 6.01945801 10.09765625 7.22265625 C10.09443359 8.48271484 10.09121094 9.74277344 10.08789062 11.04101562 C10.07953403 12.38151109 10.07106907 13.72200588 10.0625 15.0625 C10.0574866 16.40689942 10.05292342 17.7513006 10.04882812 19.09570312 C10.03699488 22.39717941 10.02050971 25.69856803 10 29 C6.7 29 3.4 29 0 29 C0 19.43 0 9.86 0 0 Z " fill="#434D52" transform="translate(237,51)"/>
<path d="M0 0 C2.64 0 5.28 0 8 0 C8 7.26 8 14.52 8 22 C10.97 22 13.94 22 17 22 C17 23.98 17 25.96 17 28 C11.39 28 5.78 28 0 28 C0 18.76 0 9.52 0 0 Z " fill="#030303" transform="translate(156,83)"/>
<path d="M0 0 C0.12375 0.639375 0.2475 1.27875 0.375 1.9375 C0.58125 2.618125 0.7875 3.29875 1 4 C1.66 4.33 2.32 4.66 3 5 C0.44601719 9.16204606 -1.95054353 12.22931926 -6 15 C-6.66 15 -7.32 15 -8 15 C-8.2475 15.7425 -8.495 16.485 -8.75 17.25 C-10.09147301 20.20124062 -11.60905526 21.84814974 -14 24 C-10.59679066 24.67673447 -10.59679066 24.67673447 -7 25 C-6.34 24.34 -5.68 23.68 -5 23 C-2.31707769 22.93808641 0.20878242 23.00110072 2.875 23.1875 C3.59558594 23.21908203 4.31617188 23.25066406 5.05859375 23.28320312 C9.31467348 23.55361703 11.84165758 24.11857386 15 27 C15.825 27.28875 16.65 27.5775 17.5 27.875 C20.67283493 29.30277572 21.87744378 31.28047484 24 34 C26.61857695 35.78962819 26.61857695 35.78962819 29 37 C27.3125 37.75 27.3125 37.75 25 38 C21.87823497 35.91882331 20.08898911 34.13348366 18 31 C16.68 31 15.36 31 14 31 C13.01 31 12.02 31 11 31 C10.34 30.34 9.68 29.68 9 29 C8.01 29 7.02 29 6 29 C5.505 27.515 5.505 27.515 5 26 C1.59679066 25.32326553 1.59679066 25.32326553 -2 25 C-2.66 25.66 -3.32 26.32 -4 27 C-6.8203125 27.1953125 -6.8203125 27.1953125 -10.125 27.125 C-11.22070312 27.10695313 -12.31640625 27.08890625 -13.4453125 27.0703125 C-14.28835937 27.04710938 -15.13140625 27.02390625 -16 27 C-17.5478831 29.79374023 -18.30760664 32.07606638 -18.625 35.25 C-18.74875 36.4875 -18.8725 37.725 -19 39 C-20.32 38.67 -21.64 38.34 -23 38 C-23 36.68 -23 35.36 -23 34 C-23.66 34 -24.32 34 -25 34 C-25.33 33.34 -25.66 32.68 -26 32 C-26.61875 32.66 -27.2375 33.32 -27.875 34 C-30 36 -30 36 -32 36 C-29.77508526 30.72174482 -25.48463877 27.39562025 -21 24 C-19.01548229 23.28856912 -17.01797888 22.61008664 -15 22 C-12.75808599 19.67678298 -12.75808599 19.67678298 -11 17 C-10.04175747 15.63634717 -9.05278825 14.29205831 -8 13 C-7.34 13 -6.68 13 -6 13 C-5.731875 12.195625 -5.46375 11.39125 -5.1875 10.5625 C-4.795625 9.716875 -4.40375 8.87125 -4 8 C-3.01 7.67 -2.02 7.34 -1 7 C-0.67 4.69 -0.34 2.38 0 0 Z " fill="#9EC1C3" transform="translate(69,35)"/>
<path d="M0 0 C2.97 0 5.94 0 9 0 C9 9.24 9 18.48 9 28 C6.03 28 3.06 28 0 28 C0 18.76 0 9.52 0 0 Z " fill="#0B6063" transform="translate(181,20)"/>
<path d="M0 0 C0 2.125 0 2.125 -1 5 C-4.31099651 8.10313126 -7.68632331 10.56210777 -12 12 C-13.33827304 13.66270287 -14.67189785 15.32916181 -16 17 C-16.66 17 -17.32 17 -18 17 C-18.226875 17.556875 -18.45375 18.11375 -18.6875 18.6875 C-20.35475652 21.62504721 -22.61811438 23.61811438 -25 26 C-26.29519995 28.16620544 -26.29519995 28.16620544 -27 30 C-27.66 30 -28.32 30 -29 30 C-28.43040847 26.37386801 -27.07625466 24.74482259 -24.4375 22.25 C-23.47650391 21.32960938 -23.47650391 21.32960938 -22.49609375 20.390625 C-22.00238281 19.93171875 -21.50867187 19.4728125 -21 19 C-21.61359375 19.30679688 -22.2271875 19.61359375 -22.859375 19.9296875 C-24.90625 20.953125 -26.953125 21.9765625 -29 23 C-28.25 21.0625 -28.25 21.0625 -27 19 C-25.66666667 18.66666667 -24.33333333 18.33333333 -23 18 C-22.29605388 16.68596724 -21.63654342 15.3479743 -21 14 C-19.3563186 12.31066078 -17.6857124 10.64740076 -16 9 C-14.45385144 7.13529822 -12.93001388 5.25723381 -11.4296875 3.35546875 C-10 2 -10 2 -7 2 C-7 2.66 -7 3.32 -7 4 C-6.34 4 -5.68 4 -5 4 C-5 3.34 -5 2.68 -5 2 C-2 0 -2 0 0 0 Z " fill="#A4C5C6" transform="translate(59,42)"/>
<path d="M0 0 C7.03482474 -0.23668569 13.1834265 0.2120463 20 2 C20 1.34 20 0.68 20 0 C21.98 0.33 23.96 0.66 26 1 C25.67 1.66 25.34 2.32 25 3 C22.56640625 3.5625 22.56640625 3.5625 19.5625 4 C15.29735299 4.49105951 15.29735299 4.49105951 12 7 C9.5390625 7.34375 9.5390625 7.34375 6.625 7.5 C2.81787964 7.7052356 0.35388653 8.22785908 -3 10 C-5.25 9.625 -5.25 9.625 -7 9 C-6.34 8.67 -5.68 8.34 -5 8 C-11.94856238 7.51521658 -18.29686769 9.30888296 -25 11 C-25.79019531 11.19722656 -26.58039063 11.39445312 -27.39453125 11.59765625 C-27.92433594 11.73042969 -28.45414063 11.86320312 -29 12 C-29 11.34 -29 10.68 -29 10 C-27.2675 9.319375 -27.2675 9.319375 -25.5 8.625 C-24.8503125 8.36976562 -24.200625 8.11453125 -23.53125 7.8515625 C-16.26980291 5.40866826 -9.62296418 4.6273464 -2 4.375 C-1.03449219 4.33632812 -0.06898437 4.29765625 0.92578125 4.2578125 C3.2836744 4.16443059 5.64157756 4.07865671 8 4 C5.36 3.01 2.72 2.02 0 1 C0 0.67 0 0.34 0 0 Z " fill="#6F9E9F" transform="translate(92,77)"/>
<path d="M0 0 C0.33 0 0.66 0 1 0 C1 1.98 1 3.96 1 6 C3.31 6 5.62 6 8 6 C8.495 6.99 8.495 6.99 9 8 C8.12786865 7.98428955 7.2557373 7.9685791 6.35717773 7.95239258 C3.09376982 7.90099179 -0.16920232 7.86351907 -3.43286133 7.83520508 C-4.84015734 7.82020123 -6.24740724 7.79979137 -7.65454102 7.77368164 C-9.68777907 7.73692335 -11.72039432 7.72019016 -13.75390625 7.70703125 C-14.97408447 7.6913208 -16.1942627 7.67561035 -17.45141602 7.65942383 C-22.35756722 8.13029283 -26.21371212 9.58147727 -30.125 12.6875 C-32.57172377 14.40020664 -34.06998705 14.30051415 -37 14 C-37.99 13.67 -38.98 13.34 -40 13 C-40.804375 13.33 -41.60875 13.66 -42.4375 14 C-45.2281724 15.08904289 -46.25369638 15.01714949 -49 14 C-48.34 13.34 -47.68 12.68 -47 12 C-47.33 11.34 -47.66 10.68 -48 10 C-47.01 10 -46.02 10 -45 10 C-45 10.66 -45 11.32 -45 12 C-44.42507812 11.67773438 -43.85015625 11.35546875 -43.2578125 11.0234375 C-40.93859087 9.97216403 -39.3937757 9.74582688 -36.875 9.625 C-33.29731364 9.32360842 -30.65842402 8.50368578 -27.421875 6.9765625 C-21.66339155 4.59399931 -16.53329413 4.53622744 -10.375 4.75 C-8.86873047 4.77707031 -8.86873047 4.77707031 -7.33203125 4.8046875 C-4.88697348 4.85126003 -2.44403188 4.91662972 0 5 C0 3.35 0 1.7 0 0 Z " fill="#72A1A3" transform="translate(83,69)"/>
<path d="M0 0 C1.64574566 -0.02688151 3.29161413 -0.04634123 4.9375 -0.0625 C5.85402344 -0.07410156 6.77054688 -0.08570312 7.71484375 -0.09765625 C10 0 10 0 11 1 C11.08748207 2.92667507 11.10697334 4.85651861 11.09765625 6.78515625 C11.09443359 7.95498047 11.09121094 9.12480469 11.08789062 10.33007812 C11.07951172 11.56177734 11.07113281 12.79347656 11.0625 14.0625 C11.05798828 15.29806641 11.05347656 16.53363281 11.04882812 17.80664062 C11.03699608 20.87114117 11.02051173 23.93554721 11 27 C8.62922263 24.69895138 6.91378011 22.49257396 5.25 19.625 C4.80140625 18.87476562 4.3528125 18.12453125 3.890625 17.3515625 C2.7695495 14.39152983 3.04516125 12.99493326 4 10 C5.19140625 7.54296875 5.19140625 7.54296875 6.5625 5.1875 C7.01753906 4.39730469 7.47257813 3.60710938 7.94140625 2.79296875 C8.29074219 2.20128906 8.64007813 1.60960938 9 1 C6.03 1 3.06 1 0 1 C0 0.67 0 0.34 0 0 Z " fill="#F3F7F7" transform="translate(211,19)"/>
<path d="M0 0 C-0.33 1.32 -0.66 2.64 -1 4 C0.32 4.33 1.64 4.66 3 5 C3 5.66 3 6.32 3 7 C-3.6 7 -10.2 7 -17 7 C-17 7.66 -17 8.32 -17 9 C-17.66 9 -18.32 9 -19 9 C-19 8.01 -19 7.02 -19 6 C-19.99 6 -20.98 6 -22 6 C-22 5.34 -22 4.68 -22 4 C-21.32453125 3.80664062 -20.6490625 3.61328125 -19.953125 3.4140625 C-18.61507812 3.02347656 -18.61507812 3.02347656 -17.25 2.625 C-16.36828125 2.36976562 -15.4865625 2.11453125 -14.578125 1.8515625 C-12.02546123 1.09388222 -12.02546123 1.09388222 -9.9375 -0.125 C-6.56928812 -1.64612794 -3.56913539 -0.5948559 0 0 Z " fill="#357477" transform="translate(122,84)"/>
<path d="M0 0 C0.99 0.66 1.98 1.32 3 2 C3.1875 4.625 3.1875 4.625 3 7 C3.66 7 4.32 7 5 7 C5.66 8.98 6.32 10.96 7 13 C6.34 13 5.68 13 5 13 C5 13.66 5 14.32 5 15 C6.65 15.33 8.3 15.66 10 16 C9.67 16.66 9.34 17.32 9 18 C6.71484375 18.6328125 6.71484375 18.6328125 3.9375 19.125 C3.01839844 19.29257813 2.09929687 19.46015625 1.15234375 19.6328125 C0.44207031 19.75398438 -0.26820312 19.87515625 -1 20 C-0.67 19.01 -0.34 18.02 0 17 C0.66 16.67 1.32 16.34 2 16 C1.030625 15.38125 0.06125 14.7625 -0.9375 14.125 C-4 12 -4 12 -5 10 C-5.04022391 7.6670134 -5.04320247 5.33293334 -5 3 C-4.67 4.32 -4.34 5.64 -4 7 C-3.01 7 -2.02 7 -1 7 C-0.67 4.69 -0.34 2.38 0 0 Z " fill="#206B6E" transform="translate(117,65)"/>
<path d="M0 0 C1.44076361 0.0785629 2.88092182 0.16890128 4.3203125 0.26953125 C5.04089844 0.30111328 5.76148437 0.33269531 6.50390625 0.36523438 C10.75998598 0.63564828 13.28697008 1.20060511 16.4453125 4.08203125 C17.2703125 4.37078125 18.0953125 4.65953125 18.9453125 4.95703125 C22.11814743 6.38480697 23.32275628 8.36250609 25.4453125 11.08203125 C28.06388945 12.87165944 28.06388945 12.87165944 30.4453125 14.08203125 C28.7578125 14.83203125 28.7578125 14.83203125 26.4453125 15.08203125 C23.32354747 13.00085456 21.53430161 11.21551491 19.4453125 8.08203125 C18.1253125 8.08203125 16.8053125 8.08203125 15.4453125 8.08203125 C14.4553125 8.08203125 13.4653125 8.08203125 12.4453125 8.08203125 C11.7853125 7.42203125 11.1253125 6.76203125 10.4453125 6.08203125 C9.4553125 6.08203125 8.4653125 6.08203125 7.4453125 6.08203125 C7.1153125 5.09203125 6.7853125 4.10203125 6.4453125 3.08203125 C3.04210316 2.40529678 3.04210316 2.40529678 -0.5546875 2.08203125 C-1.2146875 2.74203125 -1.8746875 3.40203125 -2.5546875 4.08203125 C-5.15625 4.27734375 -5.15625 4.27734375 -8.1796875 4.20703125 C-9.68402344 4.17996094 -9.68402344 4.17996094 -11.21875 4.15234375 C-11.98960938 4.12914062 -12.76046875 4.1059375 -13.5546875 4.08203125 C-13.5546875 3.75203125 -13.5546875 3.42203125 -13.5546875 3.08203125 C-12.2759375 2.95828125 -10.9971875 2.83453125 -9.6796875 2.70703125 C-5.53659864 2.30608717 -4.15875565 0.09597128 0 0 Z " fill="#3D8285" transform="translate(67.5546875,57.91796875)"/>
<path d="M0 0 C3.15336286 0.96352754 4.71390144 1.60793901 6.6875 4.3125 C10.06331355 8.23574278 14.33484086 9.90780077 19 12 C18.67 12.66 18.34 13.32 18 14 C11.375 14.25 11.375 14.25 8 12 C5.67612053 11.60612212 3.34206251 11.26513915 1 11 C1.03255208 9.01432292 1.06510417 7.02864583 1.09765625 5.04296875 C1.08263217 2.79694539 1.08263217 2.79694539 0 0 Z " fill="#F5F8F8" transform="translate(83,64)"/>
<path d="M0 0 C3.52240334 2.5773683 5.9216981 5.20891506 7.5 9.3125 C8.94163786 12.78939131 11.07379899 15.05883833 13.5625 17.875 C9.3847831 17.36817126 7.49858652 16.29400371 4.625 13.25 C3.60599609 12.17492187 3.60599609 12.17492187 2.56640625 11.078125 C1.90511719 10.35109375 1.24382812 9.6240625 0.5625 8.875 C-0.04722656 8.20984375 -0.65695313 7.5446875 -1.28515625 6.859375 C-5.4375 2.18676123 -5.4375 2.18676123 -5.4375 -0.125 C-2.4375 -1.125 -2.4375 -1.125 0 0 Z " fill="#196F72" transform="translate(85.4375,42.125)"/>
<path d="M0 0 C2.64 0.33 5.28 0.66 8 1 C6.32579888 3.81236416 4.61370092 6.00860882 2 8 C-2.01147817 8.89824448 -5.89806268 9.04646207 -10 9 C-10.66 7.02 -11.32 5.04 -12 3 C-11.21753906 2.95101562 -10.43507812 2.90203125 -9.62890625 2.8515625 C-8.61699219 2.77679688 -7.60507812 2.70203125 -6.5625 2.625 C-5.55316406 2.55539063 -4.54382812 2.48578125 -3.50390625 2.4140625 C-2.26447266 2.20910156 -2.26447266 2.20910156 -1 2 C-0.67 1.34 -0.34 0.68 0 0 Z " fill="#00595D" transform="translate(66,59)"/>
<path d="M0 0 C2.31 0.66 4.62 1.32 7 2 C6.67 2.66 6.34 3.32 6 4 C4.68 4 3.36 4 2 4 C2.45375 4.7425 2.9075 5.485 3.375 6.25 C5 9 5 9 5.8984375 10.92578125 C9.15007617 17.04854768 14.64783523 21.7425962 20 26 C21.01680311 26.98290968 22.02738219 27.97334787 23 29 C19.71700788 29 17.65349629 28.65200429 15.2890625 26.29296875 C14.12337436 24.87146217 12.96466424 23.44420867 11.8125 22.01171875 C9.20812443 19.12108638 6.47311216 17.70111616 3 16 C3 15.34 3 14.68 3 14 C2.34 14 1.68 14 1 14 C1 13.34 1 12.68 1 12 C1.66 12 2.32 12 3 12 C2.04301263 9.53917533 1.10195379 7.18244362 -0.1875 4.875 C-1 3 -1 3 0 0 Z " fill="#257579" transform="translate(78,38)"/>
<path d="M0 0 C0.66 0.33 1.32 0.66 2 1 C1.67 1.33 1.34 1.66 1 2 C0.76636119 3.84891946 0.58696365 5.70488031 0.4375 7.5625 C0.35371094 8.57441406 0.26992187 9.58632812 0.18359375 10.62890625 C0.12300781 11.41136719 0.06242187 12.19382812 0 13 C-1.98 13 -3.96 13 -6 13 C-6 12.34 -6 11.68 -6 11 C-6.66 11 -7.32 11 -8 11 C-8 10.01 -8 9.02 -8 8 C-9.32 7.67 -10.64 7.34 -12 7 C-12 6.67 -12 6.34 -12 6 C-10.4221875 5.9071875 -10.4221875 5.9071875 -8.8125 5.8125 C-4.3708265 4.86591384 -2.88406243 3.40843742 0 0 Z " fill="#3F8184" transform="translate(73,61)"/>
<path d="M0 0 C7.03482474 -0.23668569 13.1834265 0.2120463 20 2 C20 1.34 20 0.68 20 0 C22.97 0.495 22.97 0.495 26 1 C25.67 1.66 25.34 2.32 25 3 C17.77901054 5.13592361 10.52502491 6.45150149 3 6 C3 5.67 3 5.34 3 5 C4.65 4.67 6.3 4.34 8 4 C5.36 3.01 2.72 2.02 0 1 C0 0.67 0 0.34 0 0 Z " fill="#86AEAF" transform="translate(92,77)"/>
<path d="M0 0 C3.38957108 1.43347499 5.2780678 3.18781692 7.625 6 C9.3733168 8.07660336 11.07962765 10.07962765 13 12 C14.2065625 11.7215625 14.2065625 11.7215625 15.4375 11.4375 C16.7059375 11.2209375 16.7059375 11.2209375 18 11 C19.625 12.4375 19.625 12.4375 21 14 C21.99 14 22.98 14 24 14 C24 15.65 24 17.3 24 19 C22.33984375 17.95833333 20.6796875 16.91666667 19.01953125 15.875 C16.99104522 14.81642147 16.99104522 14.81642147 14.55078125 15.140625 C10.92296797 14.94062304 9.82049503 13.35516653 7.375 10.75 C6.61960937 9.96109375 5.86421875 9.1721875 5.0859375 8.359375 C0 2.60674157 0 2.60674157 0 0 Z " fill="#C0D8D8" transform="translate(82,47)"/>
<path d="M0 0 C0 2.125 0 2.125 -1 5 C-4.31099651 8.10313126 -7.68632331 10.56210777 -12 12 C-12.33 12.66 -12.66 13.32 -13 14 C-13.66 14 -14.32 14 -15 14 C-14.731875 13.505 -14.46375 13.01 -14.1875 12.5 C-12.56124507 9.0763054 -11.30484829 5.55867715 -10 2 C-9.01 2 -8.02 2 -7 2 C-7 2.66 -7 3.32 -7 4 C-6.34 4 -5.68 4 -5 4 C-5 3.34 -5 2.68 -5 2 C-2 0 -2 0 0 0 Z " fill="#327F82" transform="translate(59,42)"/>
<path d="M0 0 C1.5 1.3125 1.5 1.3125 3 3 C3 3.99 3 4.98 3 6 C4.32 6.33 5.64 6.66 7 7 C6.34 7 5.68 7 5 7 C5 8.32 5 9.64 5 11 C3.576875 10.9690625 3.576875 10.9690625 2.125 10.9375 C-0.90666283 10.77448174 -0.90666283 10.77448174 -3 12 C-3.36923077 4.61538462 -3.36923077 4.61538462 -1.5 1.5 C-1.005 1.005 -0.51 0.51 0 0 Z " fill="#2E777A" transform="translate(53,62)"/>
<path d="M0 0 C0.66 0 1.32 0 2 0 C2 9.24 2 18.48 2 28 C1.34 28 0.68 28 0 28 C-0.85319945 24.37749325 -1.06555517 21.19270837 -0.87890625 17.48046875 C-0.83056641 16.45888672 -0.78222656 15.43730469 -0.73242188 14.38476562 C-0.67634766 13.32966797 -0.62027344 12.27457031 -0.5625 11.1875 C-0.51029297 10.11306641 -0.45808594 9.03863281 -0.40429688 7.93164062 C-0.2750247 5.28743696 -0.14007564 2.64364973 0 0 Z " fill="#C7CACC" transform="translate(202,52)"/>
<path d="M0 0 C3.3 0 6.6 0 10 0 C10 0.33 10 0.66 10 1 C7.03 1 4.06 1 1 1 C1 9.91 1 18.82 1 28 C0.67 28 0.34 28 0 28 C-0.33 23.38 -0.66 18.76 -1 14 C-1.33 14 -1.66 14 -2 14 C-2 11.36 -2 8.72 -2 6 C-1.34 6 -0.68 6 0 6 C0 4.02 0 2.04 0 0 Z " fill="#B6D1D2" transform="translate(180,19)"/>
<path d="M0 0 C1.4540625 0.0309375 1.4540625 0.0309375 2.9375 0.0625 C2.2775 3.6925 1.6175 7.3225 0.9375 11.0625 C-0.3825 10.7325 -1.7025 10.4025 -3.0625 10.0625 C-3.25662181 8.58418779 -3.44262131 7.10480684 -3.625 5.625 C-3.72941406 4.80128906 -3.83382812 3.97757812 -3.94140625 3.12890625 C-3.98136719 2.44699219 -4.02132812 1.76507813 -4.0625 1.0625 C-3.0625 0.0625 -3.0625 0.0625 0 0 Z " fill="#EBF2F2" transform="translate(49.0625,62.9375)"/>
<path d="M0 0 C-0.33 1.65 -0.66 3.3 -1 5 C-1.66 5 -2.32 5 -3 5 C-3 4.34 -3 3.68 -3 3 C-3.55171875 3.16371094 -4.1034375 3.32742187 -4.671875 3.49609375 C-7.26614007 4.05760414 -9.59835411 4.09739008 -12.25 4.0625 C-13.14203125 4.05347656 -14.0340625 4.04445313 -14.953125 4.03515625 C-15.62859375 4.02355469 -16.3040625 4.01195313 -17 4 C-11.75576186 -1.24423814 -6.84943785 -1.32182134 0 0 Z " fill="#357678" transform="translate(122,84)"/>
<path d="M0 0 C6.45133932 2.46668856 10.7239632 4.48253316 15 10 C17.61857695 11.78962819 17.61857695 11.78962819 20 13 C18.3125 13.75 18.3125 13.75 16 14 C12.87823497 11.91882331 11.08898911 10.13348366 9 7 C7.5459375 6.566875 7.5459375 6.566875 6.0625 6.125 C2.38427318 4.77381464 1.64130245 3.46497184 0 0 Z " fill="#89B2B4" transform="translate(78,59)"/>
<path d="M0 0 C0 0.99 0 1.98 0 3 C-6.6 3 -13.2 3 -20 3 C-20.33 3.66 -20.66 4.32 -21 5 C-20.67 3.68 -20.34 2.36 -20 1 C-17.22922802 0.83225597 -14.45839073 0.66576064 -11.6875 0.5 C-10.90181641 0.45230469 -10.11613281 0.40460938 -9.30664062 0.35546875 C-8.54931641 0.31035156 -7.79199219 0.26523438 -7.01171875 0.21875 C-6.31522217 0.17685547 -5.61872559 0.13496094 -4.90112305 0.09179688 C-3.26903034 0.01299029 -1.63399421 0 0 0 Z " fill="#A9C3C3" transform="translate(101,101)"/>
<path d="M0 0 C0 0.66 0 1.32 0 2 C-0.96099609 2.03867188 -0.96099609 2.03867188 -1.94140625 2.078125 C-6.44564859 2.37348515 -10.00604155 2.68056002 -13.875 5.125 C-17 7 -17 7 -19.4375 6.75 C-19.953125 6.5025 -20.46875 6.255 -21 6 C-20.01 5.67 -19.02 5.34 -18 5 C-17.67 4.01 -17.34 3.02 -17 2 C-11.25642463 0.05128693 -6.02685217 -0.25111884 0 0 Z " fill="#69999A" transform="translate(59,84)"/>
<path d="M0 0 C0.66 0.33 1.32 0.66 2 1 C1.67515625 2.30324219 1.67515625 2.30324219 1.34375 3.6328125 C1.0653125 4.78523438 0.786875 5.93765625 0.5 7.125 C0.2215625 8.26195313 -0.056875 9.39890625 -0.34375 10.5703125 C-0.96453765 13.81466698 -1.12006768 16.70814457 -1 20 C-1.99 20 -2.98 20 -4 20 C-5.1875 17.25 -5.1875 17.25 -6 14 C-4.75 11.625 -4.75 11.625 -3 10 C-2.34 10 -1.68 10 -1 10 C-1.020625 8.72125 -1.04125 7.4425 -1.0625 6.125 C-1.125 2.25 -1.125 2.25 0 0 Z " fill="#5C9496" transform="translate(107,56)"/>
<path d="M0 0 C1.64574566 -0.02688151 3.29161413 -0.04634123 4.9375 -0.0625 C5.85402344 -0.07410156 6.77054688 -0.08570312 7.71484375 -0.09765625 C10 0 10 0 11 1 C11.08748207 2.92667507 11.10697334 4.85651861 11.09765625 6.78515625 C11.09443359 7.95498047 11.09121094 9.12480469 11.08789062 10.33007812 C11.07951172 11.56177734 11.07113281 12.79347656 11.0625 14.0625 C11.05798828 15.29806641 11.05347656 16.53363281 11.04882812 17.80664062 C11.03699608 20.87114117 11.02051173 23.93554721 11 27 C9 25 9 25 8.77294922 23.02880859 C8.78342285 22.24328613 8.79389648 21.45776367 8.8046875 20.6484375 C8.81113281 19.79765625 8.81757813 18.946875 8.82421875 18.0703125 C8.84097656 17.18085937 8.85773438 16.29140625 8.875 15.375 C8.88402344 14.4778125 8.89304688 13.580625 8.90234375 12.65625 C8.9259503 10.43723414 8.9588769 8.21874923 9 6 C8.34 6 7.68 6 7 6 C7.66 4.35 8.32 2.7 9 1 C6.03 1 3.06 1 0 1 C0 0.67 0 0.34 0 0 Z " fill="#C6DBDC" transform="translate(211,19)"/>
<path d="M0 0 C-0.33 0.99 -0.66 1.98 -1 3 C-2.65 3.33 -4.3 3.66 -6 4 C-6 5.65 -6 7.3 -6 9 C-6.66 9 -7.32 9 -8 9 C-8.33 8.34 -8.66 7.68 -9 7 C-9.928125 7.99 -9.928125 7.99 -10.875 9 C-13 11 -13 11 -15 11 C-13.57570166 7.6985495 -11.86063129 5.64201806 -9.1875 3.25 C-8.18783203 2.32960937 -8.18783203 2.32960937 -7.16796875 1.390625 C-4.57462308 -0.27285439 -3.02376458 -0.27440795 0 0 Z " fill="#679D9F" transform="translate(52,60)"/>
<path d="M0 0 C-1.98 2.31 -3.96 4.62 -6 7 C-7.32 6.67 -8.64 6.34 -10 6 C-10.6875 4.1875 -10.6875 4.1875 -11 2 C-8.64335418 -2.55618191 -4.23792448 -0.76421589 0 0 Z " fill="#0D6266" transform="translate(74,60)"/>
<path d="M0 0 C0.33 0 0.66 0 1 0 C1 4.95 1 9.9 1 15 C0.34 15 -0.32 15 -1 15 C-1.33 12.69 -1.66 10.38 -2 8 C-2.99 8.495 -2.99 8.495 -4 9 C-2.94124926 5.59687262 -1.99097846 2.98646769 0 0 Z " fill="#BEC1C3" transform="translate(225,65)"/>
<path d="M0 0 C0.33 0.66 0.66 1.32 1 2 C-0.40269417 6.10018296 -1.92047431 9.92047431 -5 13 C-5.99 12.67 -6.98 12.34 -8 12 C-6.59023295 8.96147295 -4.91129772 6.4060405 -2.875 3.75 C-2.06675781 2.69039062 -2.06675781 2.69039062 -1.2421875 1.609375 C-0.83226562 1.07828125 -0.42234375 0.5471875 0 0 Z " fill="#C6DBDC" transform="translate(48,45)"/>
<path d="M0 0 C0.33 1.32 0.66 2.64 1 4 C1.66 4 2.32 4 3 4 C2.67 4.99 2.34 5.98 2 7 C1.34 6.67 0.68 6.34 0 6 C-0.33 6.99 -0.66 7.98 -1 9 C-6.46511628 14 -6.46511628 14 -9 14 C-7.88411408 11.15956311 -6.98786615 9.99089961 -4.5 8.125 C-1.54965983 5.61721085 -0.92526214 3.70104856 0 0 Z " fill="#81B0B1" transform="translate(72,41)"/>
<path d="M0 0 C0.12375 0.639375 0.2475 1.27875 0.375 1.9375 C0.684375 2.9584375 0.684375 2.9584375 1 4 C1.66 4.33 2.32 4.66 3 5 C-1 11.57142857 -1 11.57142857 -5 13 C-4.67 11.35 -4.34 9.7 -4 8 C-3.01 7.67 -2.02 7.34 -1 7 C-0.67 4.69 -0.34 2.38 0 0 Z " fill="#609B9E" transform="translate(69,35)"/>
<path d="M0 0 C0.66 0 1.32 0 2 0 C2.33 3.3 2.66 6.6 3 10 C1.68 10 0.36 10 -1 10 C-0.67 6.7 -0.34 3.4 0 0 Z " fill="#D9D9D9" transform="translate(187,90)"/>
<path d="M0 0 C0.26554687 0.58265625 0.53109375 1.1653125 0.8046875 1.765625 C2.03302996 4.06174228 3.40314939 5.80356018 5.125 7.75 C5.66382812 8.36359375 6.20265625 8.9771875 6.7578125 9.609375 C7.16773437 10.06828125 7.57765625 10.5271875 8 11 C4.92900316 10.65877813 3.1657085 10.11774025 0.625 8.3125 C-1 6 -1 6 -0.75 2.75 C-0.5025 1.8425 -0.255 0.935 0 0 Z " fill="#28777A" transform="translate(91,49)"/>
<path d="M0 0 C1.32 0 2.64 0 4 0 C4 0.66 4 1.32 4 2 C3.01 2.33 2.02 2.66 1 3 C-0.02700444 5.32891096 -0.02700444 5.32891096 -0.6875 8.0625 C-0.93886719 8.98160156 -1.19023438 9.90070312 -1.44921875 10.84765625 C-1.63097656 11.55792969 -1.81273437 12.26820312 -2 13 C-3.42181039 10.71586417 -4.118582 9.58638253 -3.57421875 6.89453125 C-3.28160156 6.20746094 -2.98898438 5.52039062 -2.6875 4.8125 C-2.40261719 4.11769531 -2.11773437 3.42289063 -1.82421875 2.70703125 C-1 1 -1 1 0 0 Z " fill="#95BDBF" transform="translate(62,31)"/>
<path d="M0 0 C1.65 0 3.3 0 5 0 C5 1.98 5 3.96 5 6 C3.35 6 1.7 6 0 6 C0 4.02 0 2.04 0 0 Z " fill="#6EA0A2" transform="translate(74,67)"/>
<path d="M0 0 C0.66 0.33 1.32 0.66 2 1 C2.59355614 3.64860427 2.74209269 6.29197322 3 9 C1.35 9 -0.3 9 -2 9 C-1.34 6.03 -0.68 3.06 0 0 Z " fill="#D8DADB" transform="translate(187,60)"/>
<path d="M0 0 C2.31 0.66 4.62 1.32 7 2 C6.67 2.66 6.34 3.32 6 4 C4.68 4 3.36 4 2 4 C2.99 5.65 3.98 7.3 5 9 C4.01 9.495 4.01 9.495 3 10 C0.9375 7.8125 0.9375 7.8125 -1 5 C-0.75 2.1875 -0.75 2.1875 0 0 Z " fill="#529396" transform="translate(78,38)"/>
<path d="M0 0 C2.72869407 0.03287583 5.2966618 0.56397771 8 1 C7.67 1.66 7.34 2.32 7 3 C4.71484375 3.6328125 4.71484375 3.6328125 1.9375 4.125 C1.01839844 4.29257813 0.09929687 4.46015625 -0.84765625 4.6328125 C-1.91306641 4.81457031 -1.91306641 4.81457031 -3 5 C-2 2 -2 2 0 0 Z " fill="#156164" transform="translate(119,80)"/>
<path d="M0 0 C0.042721 1.66611905 0.04063832 3.33382885 0 5 C-1 6 -1 6 -3.5625 6.0625 C-4.7690625 6.0315625 -4.7690625 6.0315625 -6 6 C-6 4.68 -6 3.36 -6 2 C-1.125 0 -1.125 0 0 0 Z " fill="#90B5B7" transform="translate(30,72)"/>
<path d="M0 0 C0.33 0.99 0.66 1.98 1 3 C0.34 3 -0.32 3 -1 3 C-1 3.99 -1 4.98 -1 6 C-0.34 6 0.32 6 1 6 C1 6.66 1 7.32 1 8 C-0.32 8 -1.64 8 -3 8 C-3 7.34 -3 6.68 -3 6 C-3.66 6 -4.32 6 -5 6 C-4.75 4.125 -4.75 4.125 -4 2 C-1.9375 0.75 -1.9375 0.75 0 0 Z " fill="#2D7578" transform="translate(70,66)"/>
<path d="M0 0 C2.89943603 1.33182886 5.16877099 2.8329463 7.5625 4.9375 C8.14128906 5.44152344 8.72007813 5.94554687 9.31640625 6.46484375 C10.92669359 7.9331568 12.47325679 9.44541345 14 11 C10.61334013 11 8.58888157 10.54459576 6.078125 8.22265625 C1.49051205 2.9810241 1.49051205 2.9810241 0 0 Z " fill="#589496" transform="translate(87,56)"/>
<path d="M0 0 C1.65 0 3.3 0 5 0 C5.5625 1.9375 5.5625 1.9375 6 4 C5 5 5 5 2.4375 5.0625 C1.2309375 5.0315625 1.2309375 5.0315625 0 5 C0 3.35 0 1.7 0 0 Z " fill="#E1ECED" transform="translate(165,26)"/>
<path d="M0 0 C0.66 0 1.32 0 2 0 C2.474375 0.495 2.94875 0.99 3.4375 1.5 C4.99969942 3.34626591 4.99969942 3.34626591 8 3 C8 4.65 8 6.3 8 8 C5.03 6.35 2.06 4.7 -1 3 C-0.67 2.01 -0.34 1.02 0 0 Z " fill="#8FB7B9" transform="translate(98,58)"/>
<path d="M0 0 C3.625 0.375 3.625 0.375 7 1 C6.38125 1.12375 5.7625 1.2475 5.125 1.375 C2.80879168 1.87197356 2.80879168 1.87197356 1 4 C-1.6015625 4.1953125 -1.6015625 4.1953125 -4.625 4.125 C-6.12933594 4.09792969 -6.12933594 4.09792969 -7.6640625 4.0703125 C-8.43492188 4.04710937 -9.20578125 4.02390625 -10 4 C-10 3.67 -10 3.34 -10 3 C-8.72125 2.87625 -7.4425 2.7525 -6.125 2.625 C-2.65209064 2.30957601 -2.65209064 2.30957601 0 0 Z " fill="#639B9D" transform="translate(64,58)"/>
<path d="M0 0 C0.99 0 1.98 0 3 0 C2.67 0.66 2.34 1.32 2 2 C1.32136945 3.9959722 0.65358081 5.99568551 0 8 C-0.99 8 -1.98 8 -3 8 C-3.33 6.02 -3.66 4.04 -4 2 C-2.68 2 -1.36 2 0 2 C0 1.34 0 0.68 0 0 Z " fill="#8FB6B7" transform="translate(116,64)"/>
<path d="M0 0 C-0.33 0.99 -0.66 1.98 -1 3 C-3.97 3 -6.94 3 -10 3 C-6.74534559 -0.25465441 -4.4822096 -1.60078914 0 0 Z " fill="#6E9C9E" transform="translate(115,85)"/>
<path d="M0 0 C1.65 0.33 3.3 0.66 5 1 C2.19195732 3.96404505 -0.18315774 6.44499019 -4 8 C-2.66666667 5.33333333 -1.33333333 2.66666667 0 0 Z " fill="#BFD7D8" transform="translate(74,48)"/>
<path d="M0 0 C0.66 0 1.32 0 2 0 C2 0.66 2 1.32 2 2 C2.66 2.33 3.32 2.66 4 3 C3.67 3.66 3.34 4.32 3 5 C3.66 5.33 4.32 5.66 5 6 C4.01 6.495 4.01 6.495 3 7 C1.35 5.68 -0.3 4.36 -2 3 C-1.34 2.01 -0.68 1.02 0 0 Z " fill="#D1E1E1" transform="translate(99,70)"/>
<path d="M0 0 C0.66 0.33 1.32 0.66 2 1 C1.21625 1.7425 0.4325 2.485 -0.375 3.25 C-2.56504531 5.54433318 -3.82731386 7.12158858 -5 10 C-5.66 10 -6.32 10 -7 10 C-6.42424336 6.64749299 -5.40693737 5.06181371 -2.9375 2.75 C-2.38964844 2.22921875 -1.84179688 1.7084375 -1.27734375 1.171875 C-0.64505859 0.59179688 -0.64505859 0.59179688 0 0 Z " fill="#BCD3D4" transform="translate(37,62)"/>
<path d="M0 0 C0.99 0.33 1.98 0.66 3 1 C2.01 4.3 1.02 7.6 0 11 C-0.66 11 -1.32 11 -2 11 C-2.24042276 6.91281305 -1.42258812 3.82320557 0 0 Z " fill="#A7C8CA" transform="translate(69,24)"/>
<path d="M0 0 C0.99 0 1.98 0 3 0 C3 0.66 3 1.32 3 2 C3.99 1.67 4.98 1.34 6 1 C6.66 1.66 7.32 2.32 8 3 C3.56923077 5.09230769 3.56923077 5.09230769 0.6875 4.625 C0.130625 4.41875 -0.42625 4.2125 -1 4 C-0.34 3.34 0.32 2.68 1 2 C0.67 1.34 0.34 0.68 0 0 Z " fill="#588F91" transform="translate(35,79)"/>
<path d="M0 0 C0.33 0 0.66 0 1 0 C1 2.31 1 4.62 1 7 C-0.32 6.67 -1.64 6.34 -3 6 C-3 4.68 -3 3.36 -3 2 C-2.01 2 -1.02 2 0 2 C0 1.34 0 0.68 0 0 Z " fill="#B2CCCD" transform="translate(49,67)"/>
<path d="M0 0 C-0.639375 0.268125 -1.27875 0.53625 -1.9375 0.8125 C-4.33131686 1.88667752 -4.33131686 1.88667752 -5 5 C-5 4.01 -5 3.02 -5 2 C-5.99 2 -6.98 2 -8 2 C-8 1.34 -8 0.68 -8 0 C-5.13822943 -1.43088528 -3.06624227 -0.59991697 0 0 Z " fill="#23686A" transform="translate(108,88)"/>
<path d="M0 0 C0.66 0 1.32 0 2 0 C2 0.99 2 1.98 2 3 C2.66 3 3.32 3 4 3 C4 3.99 4 4.98 4 6 C2.68 6.33 1.36 6.66 0 7 C0 4.69 0 2.38 0 0 Z " fill="#4C8A8C" transform="translate(53,66)"/>
<path d="M0 0 C0.99 0 1.98 0 3 0 C3 2.31 3 4.62 3 7 C2.01 7.33 1.02 7.66 0 8 C0 5.36 0 2.72 0 0 Z " fill="#387D7F" transform="translate(50,66)"/>
<path d="M0 0 C0 0.33 0 0.66 0 1 C-3.3 1.66 -6.6 2.32 -10 3 C-10 2.34 -10 1.68 -10 1 C-6.42181037 -1.33958553 -4.07775191 -0.9267618 0 0 Z " fill="#3C7A7C" transform="translate(73,86)"/>
<path d="M0 0 C2.97 0.495 2.97 0.495 6 1 C5.67 1.66 5.34 2.32 5 3 C2.67843403 3.40729228 0.3431213 3.74438677 -2 4 C-1.34 2.68 -0.68 1.36 0 0 Z " fill="#71A0A1" transform="translate(112,77)"/>
<path d="M0 0 C4.67692308 1.47692308 4.67692308 1.47692308 6.3125 4.125 C6.539375 4.74375 6.76625 5.3625 7 6 C5.1875 5.8125 5.1875 5.8125 3 5 C1.25 2.4375 1.25 2.4375 0 0 Z " fill="#AECBCC" transform="translate(78,59)"/>
<path d="M0 0 C0.33 1.32 0.66 2.64 1 4 C1.66 4 2.32 4 3 4 C2.67 4.99 2.34 5.98 2 7 C1.34 6.67 0.68 6.34 0 6 C0 6.66 0 7.32 0 8 C-0.66 8 -1.32 8 -2 8 C-1.34 5.36 -0.68 2.72 0 0 Z " fill="#67A0A2" transform="translate(72,41)"/>
</svg>
