<?xml version="1.0" encoding="UTF-8"?>
<svg version="1.1" xmlns="http://www.w3.org/2000/svg" width="162" height="50">
<path d="M0 0 C0 1.65 0 3.3 0 5 C1.32 5 2.64 5 4 5 C4.66 6.32 5.32 7.64 6 9 C6.33 7.68 6.66 6.36 7 5 C8.65 5 10.3 5 12 5 C10.06375702 11.20477864 7.74390859 17.10825719 5 23 C3.68 23 2.36 23 1 23 C1.29296875 21.01432292 1.5859375 19.02864583 1.87890625 17.04296875 C2.13904799 14.7974658 2.13904799 14.7974658 1 12 C0.67 13.98 0.34 15.96 0 18 C-4.95 18 -9.9 18 -15 18 C-14.67 15.03 -14.34 12.06 -14 9 C-14.99 9 -15.98 9 -17 9 C-17 11.97 -17 14.94 -17 18 C-18.32 18 -19.64 18 -21 18 C-22.125 11.25 -22.125 11.25 -21 9 C-21.99 9 -22.98 9 -24 9 C-23.67 11.97 -23.34 14.94 -23 18 C-25.29141286 18.05384521 -27.58318188 18.09272087 -29.875 18.125 C-31.15117188 18.14820312 -32.42734375 18.17140625 -33.7421875 18.1953125 C-37 18 -37 18 -39 16 C-39.125 13.375 -39.125 13.375 -39 11 C-40.32 10.67 -41.64 10.34 -43 10 C-42.83628906 10.81726562 -42.67257813 11.63453125 -42.50390625 12.4765625 C-41.93025394 16.48768176 -41.88998396 20.33248121 -41.9375 24.375 C-41.94201172 25.11105469 -41.94652344 25.84710938 -41.95117188 26.60546875 C-41.96284858 28.40368158 -41.98077989 30.20185197 -42 32 C-40.68 32.33 -39.36 32.66 -38 33 C-37.17361624 30.10765685 -37 28.11257569 -37 25 C-36.67 24.34 -36.34 23.68 -36 23 C-31.38 23 -26.76 23 -22 23 C-21.34 24.32 -20.68 25.64 -20 27 C-19.34 26.01 -18.68 25.02 -18 24 C-15 25 -15 25 -14 27 C-13.34 25.68 -12.68 24.36 -12 23 C-10.68 23 -9.36 23 -8 23 C-8.65419099 28.06998019 -10.8546409 32.41990777 -13 37 C-13.99 37 -14.98 37 -16 37 C-16.66 36.01 -17.32 35.02 -18 34 C-18.33 34.99 -18.66 35.98 -19 37 C-19.99 37 -20.98 37 -22 37 C-22.99 34.69 -23.98 32.38 -25 30 C-25.33 32.31 -25.66 34.62 -26 37 C-33 37 -40 37 -47 37 C-48.82278481 8.29113924 -48.82278481 8.29113924 -47 1 C-43.7 1 -40.4 1 -37 1 C-37.33 2.32 -37.66 3.64 -38 5 C-39.65 4.67 -41.3 4.34 -43 4 C-43 4.99 -43 5.98 -43 7 C-42.13375 6.67 -41.2675 6.34 -40.375 6 C-37.01482091 5.00439138 -34.47605178 4.84550881 -31 5 C-30.01 5 -29.02 5 -28 5 C-22 5 -16 5 -10 5 C-9.67 3.68 -9.34 2.36 -9 1 C-5.92677456 0.08941469 -3.19902639 -0.08886184 0 0 Z M-34 12 C-34.33 12.99 -34.66 13.98 -35 15 C-34.34 15 -33.68 15 -33 15 C-33.33 14.01 -33.66 13.02 -34 12 Z M-32 30 C-32.33 30.99 -32.66 31.98 -33 33 C-32.34 33 -31.68 33 -31 33 C-31.33 32.01 -31.66 31.02 -32 30 Z " fill="#0D274A" transform="translate(148,8)"/>
<path d="M0 0 C2.97 0 5.94 0 9 0 C9 6.27 9 12.54 9 19 C14.70415753 14.92570064 14.70415753 14.92570064 16 12 C18.64 12 21.28 12 24 12 C24 12.99 24 13.98 24 15 C22.36816893 16.05589069 20.69207001 17.0436126 19 18 C16.94118667 19.60558511 14.98006398 21.29622401 13 23 C18.55664364 31.55275074 18.55664364 31.55275074 26 38 C26 38.66 26 39.32 26 40 C22.60063223 40.35031653 19.38679471 40.52268643 16 40 C13.5625 37.25 13.5625 37.25 12 34 C11.01 32.68 10.02 31.36 9 30 C9 33.3 9 36.6 9 40 C6.03 40 3.06 40 0 40 C0 26.8 0 13.6 0 0 Z " fill="#053767" transform="translate(41,3)"/>
<path d="M0 0 C2.52309558 4.20515931 2.94944123 8.21256327 2 13 C-0.04191311 16.37604652 -2.44390371 19.22195185 -6 21 C-8.6723621 21.13415472 -11.32250488 21.04318541 -14 21 C-13.67 25.62 -13.34 30.24 -13 35 C-15.97 35 -18.94 35 -22 35 C-22 22.46 -22 9.92 -22 -3 C-6.01444043 -4.77617329 -6.01444043 -4.77617329 0 0 Z M-14 1 C-14 6.28 -14 11.56 -14 17 C-9.38760855 17.41344912 -9.38760855 17.41344912 -7.25 16 C-5.29044161 12.86470657 -4.89419524 9.62557649 -5 6 C-5.84836524 2.94350714 -5.84836524 2.94350714 -8 1 C-9.98 1 -11.96 1 -14 1 Z " fill="#053767" transform="translate(25,8)"/>
<path d="M0 0 C3.45913159 1.7295658 5.50584365 4.10153391 7.375 7.5 C8.02563876 10.10255504 8.15267661 12.32815927 8 15 C4.00204108 15.95619733 0.29196078 16.1039592 -3.8125 16.0625 C-4.97394531 16.05347656 -6.13539062 16.04445313 -7.33203125 16.03515625 C-8.21246094 16.02355469 -9.09289062 16.01195313 -10 16 C-9.42547254 19.93075644 -9.42547254 19.93075644 -7 23 C-2.07505833 23.46447597 -2.07505833 23.46447597 2.3125 21.5 C2.869375 21.005 3.42625 20.51 4 20 C4.66 20 5.32 20 6 20 C5.25 25.75 5.25 25.75 3 28 C-3.39572726 29.55508542 -8.35448994 29.38730603 -14 26 C-17.65859421 22.44028671 -19.3357948 19.06456465 -20 14 C-18.86715534 8.90219904 -17.07498854 5.07498854 -13.375 1.375 C-8.7887785 -0.49346061 -4.88001034 -0.91896299 0 0 Z M-9.8125 5.8125 C-11.23854593 8.02458697 -11.23854593 8.02458697 -11 11 C-7.37 11 -3.74 11 0 11 C-0.49152482 6.13867505 -0.49152482 6.13867505 -3 4 C-6.24963647 3.50005593 -7.44354333 3.44354333 -9.8125 5.8125 Z " fill="#07335F" transform="translate(83,15)"/>
<path d="M0 0 C2.97 0 5.94 0 9 0 C9 7.26 9 14.52 9 22 C8.34 22 7.68 22 7 22 C7 15.07 7 8.14 7 1 C5.35 1 3.7 1 2 1 C2 13.21 2 25.42 2 38 C3.32 38 4.64 38 6 38 C6 34.04 6 30.08 6 26 C6.66 26 7.32 26 8 26 C8.33 25.01 8.66 24.02 9 23 C14.26213445 26.60832076 18.50770641 30.42219968 22.5546875 35.36328125 C23.92118154 37.11660051 23.92118154 37.11660051 26 38 C26 38.66 26 39.32 26 40 C22.60063223 40.35031653 19.38679471 40.52268643 16 40 C13.5625 37.25 13.5625 37.25 12 34 C11.01 32.68 10.02 31.36 9 30 C9 33.3 9 36.6 9 40 C6.03 40 3.06 40 0 40 C0 26.8 0 13.6 0 0 Z " fill="#0A2B53" transform="translate(41,3)"/>
<path d="M0 0 C2.64 0 5.28 0 8 0 C8 9.24 8 18.48 8 28 C5.36 28 2.72 28 0 28 C0 18.76 0 9.52 0 0 Z " fill="#07315C" transform="translate(29,15)"/>
<path d="M0 0 C2.2818272 1.86694953 2.76373405 2.79942917 3.0625 5.6875 C2.27875 5.0275 1.495 4.3675 0.6875 3.6875 C-1.65262812 1.48548559 -1.65262812 1.48548559 -3.9375 1.6875 C-3.6075 2.409375 -3.2775 3.13125 -2.9375 3.875 C-1.93146471 6.70447427 -1.76772598 8.71645466 -1.9375 11.6875 C-2.5975 11.3575 -3.2575 11.0275 -3.9375 10.6875 C-4.5625 7.625 -4.5625 7.625 -4.9375 4.6875 C-7.2475 4.0275 -9.5575 3.3675 -11.9375 2.6875 C-11.9375 7.9675 -11.9375 13.2475 -11.9375 18.6875 C-10.2875 18.6875 -8.6375 18.6875 -6.9375 18.6875 C-6.9375 19.0175 -6.9375 19.3475 -6.9375 19.6875 C-8.9175 19.6875 -10.8975 19.6875 -12.9375 19.6875 C-12.96433987 16.70827407 -12.98426037 13.72928705 -13 10.75 C-13.00837891 9.89986328 -13.01675781 9.04972656 -13.02539062 8.17382812 C-13.02861328 7.36494141 -13.03183594 6.55605469 -13.03515625 5.72265625 C-13.04039307 4.9737915 -13.04562988 4.22492676 -13.05102539 3.45336914 C-12.9375 1.6875 -12.9375 1.6875 -11.9375 0.6875 C-14.9075 0.1925 -14.9075 0.1925 -17.9375 -0.3125 C-17.9375 11.5675 -17.9375 23.4475 -17.9375 35.6875 C-16.2875 35.6875 -14.6375 35.6875 -12.9375 35.6875 C-12.9375 31.0675 -12.9375 26.4475 -12.9375 21.6875 C-8.9775 21.0275 -5.0175 20.3675 -0.9375 19.6875 C-3.9375 22.6875 -3.9375 22.6875 -5.98046875 22.98046875 C-8.95898438 22.83398438 -8.95898438 22.83398438 -11.9375 22.6875 C-11.6075 27.3075 -11.2775 31.9275 -10.9375 36.6875 C-13.9075 36.6875 -16.8775 36.6875 -19.9375 36.6875 C-19.9375 24.1475 -19.9375 11.6075 -19.9375 -1.3125 C-6.32309322 -2.82521186 -6.32309322 -2.82521186 0 0 Z " fill="#102141" transform="translate(22.9375,6.3125)"/>
<path d="M0 0 C0 1.65 0 3.3 0 5 C1.32 5 2.64 5 4 5 C3.67 6.32 3.34 7.64 3 9 C3 8.01 3 7.02 3 6 C1.68 6 0.36 6 -1 6 C-1 4.35 -1 2.7 -1 1 C-1.99 1 -2.98 1 -4 1 C-4 6.28 -4 11.56 -4 17 C-3.01 17 -2.02 17 -1 17 C-1 14.03 -1 11.06 -1 8 C-0.67 8 -0.34 8 0 8 C0 11.3 0 14.6 0 18 C-4.95 18 -9.9 18 -15 18 C-14.505 16.515 -14.505 16.515 -14 15 C-14 15.66 -14 16.32 -14 17 C-13.01 17 -12.02 17 -11 17 C-11.02320313 16.34773438 -11.04640625 15.69546875 -11.0703125 15.0234375 C-11.26853821 5.42364951 -11.26853821 5.42364951 -9 1 C-6.14297313 -0.37925435 -3.13680281 -0.08713341 0 0 Z " fill="#141C34" transform="translate(148,8)"/>
<path d="M0 0 C1 1 1 1 1.09765625 3.50390625 C1.08605469 4.51324219 1.07445312 5.52257812 1.0625 6.5625 C1.05347656 7.57441406 1.04445312 8.58632813 1.03515625 9.62890625 C1.02355469 10.41136719 1.01195312 11.19382812 1 12 C0.01 12 -0.98 12 -2 12 C-2 9.36 -2 6.72 -2 4 C-2.99 4 -3.98 4 -5 4 C-5 6.97 -5 9.94 -5 13 C-6.32 13 -7.64 13 -9 13 C-10.125 6.25 -10.125 6.25 -9 4 C-9.99 4 -10.98 4 -12 4 C-12 6.64 -12 9.28 -12 12 C-12.99 12 -13.98 12 -15 12 C-15 8.37 -15 4.74 -15 1 C-4.03501884 -0.16959799 -4.03501884 -0.16959799 0 0 Z " fill="#0C2547" transform="translate(136,13)"/>
<path d="M0 0 C0.99 0 1.98 0 3 0 C3 13.86 3 27.72 3 42 C2.01 42 1.02 42 0 42 C-0.16721165 36.17944212 -0.32781152 30.35875454 -0.48217773 24.5378418 C-0.53567894 22.55602051 -0.5910143 20.57424788 -0.64819336 18.5925293 C-0.72987855 15.75059507 -0.80505172 12.90855338 -0.87890625 10.06640625 C-0.90594131 9.17474258 -0.93297638 8.28307892 -0.96083069 7.36439514 C-1.01275915 5.24352554 -1.01188911 3.12147191 -1 1 C-0.67 0.67 -0.34 0.34 0 0 Z " fill="#7F120D" transform="translate(94,6)"/>
<path d="M0 0 C2.50753894 1.42440082 3.98590534 2.87990036 6 5 C5.67 5.66 5.34 6.32 5 7 C4.236875 6.34 3.47375 5.68 2.6875 5 C0.15722061 2.70149462 0.15722061 2.70149462 -3 3 C-3 3.33 -3 3.66 -3 4 C-4.423125 4.3403125 -4.423125 4.3403125 -5.875 4.6875 C-6.90625 5.120625 -7.9375 5.55375 -9 6 C-9.66 7.65 -10.32 9.3 -11 11 C-7.37 11 -3.74 11 0 11 C0.33 10.01 0.66 9.02 1 8 C1.33 9.32 1.66 10.64 2 12 C-2.62 12 -7.24 12 -12 12 C-12 9.69 -12 7.38 -12 5 C-14.475 6.485 -14.475 6.485 -17 8 C-16.11593727 5.02633445 -15.31696033 3.2872453 -13 1.1875 C-8.6297951 -0.54237277 -4.63210025 -0.82742461 0 0 Z " fill="#0C284D" transform="translate(83,15)"/>
<path d="M0 0 C5.75 -0.125 5.75 -0.125 8 1 C8 4.3 8 7.6 8 11 C6.68 10.67 5.36 10.34 4 10 C4.33 8.68 4.66 7.36 5 6 C4.01 6.495 4.01 6.495 3 7 C2.34786708 9.02463255 2.34786708 9.02463255 2 11 C1.01 11 0.02 11 -1 11 C-1.20086443 7.28400809 -1.1519437 6.22791555 1 3 C0.67 2.01 0.34 1.02 0 0 Z " fill="#092D56" transform="translate(113,32)"/>
<path d="M0 0 C5.87095105 0.35225706 9.00433588 1.62379644 13 6 C13.875 9.8125 13.875 9.8125 14 13 C11.69 13 9.38 13 7 13 C7.33 11.02 7.66 9.04 8 7 C7.34 7 6.68 7 6 7 C4.9935725 5.33720673 3.99414593 3.67016516 3 2 C2.01 1.34 1.02 0.68 0 0 Z " fill="#063767" transform="translate(76,16)"/>
<path d="M0 0 C2.625 1.5 2.625 1.5 4 4.125 C4.20625 4.90875 4.4125 5.6925 4.625 6.5 C3.449375 5.51 3.449375 5.51 2.25 4.5 C-0.09012812 2.29798559 -0.09012812 2.29798559 -2.375 2.5 C-2.045 3.221875 -1.715 3.94375 -1.375 4.6875 C-0.36896471 7.51697427 -0.20522598 9.52895466 -0.375 12.5 C-1.035 12.17 -1.695 11.84 -2.375 11.5 C-3 8.4375 -3 8.4375 -3.375 5.5 C-5.685 4.84 -7.995 4.18 -10.375 3.5 C-10.375 8.78 -10.375 14.06 -10.375 19.5 C-8.725 19.5 -7.075 19.5 -5.375 19.5 C-5.375 19.83 -5.375 20.16 -5.375 20.5 C-7.355 20.5 -9.335 20.5 -11.375 20.5 C-11.375 14.56 -11.375 8.62 -11.375 2.5 C-3.375 -0.5 -3.375 -0.5 0 0 Z " fill="#0B264A" transform="translate(21.375,5.5)"/>
<path d="M0 0 C2.64 0 5.28 0 8 0 C9.20272819 2.40545638 9.10071472 3.94996953 9.0625 6.625 C9.05347656 7.44226563 9.04445312 8.25953125 9.03515625 9.1015625 C9.02355469 9.72804688 9.01195312 10.35453125 9 11 C8.34 11 7.68 11 7 11 C7 8.03 7 5.06 7 2 C5.68 2 4.36 2 3 2 C3 4.97 3 7.94 3 11 C2.01 11 1.02 11 0 11 C0 7.37 0 3.74 0 0 Z " fill="#063361" transform="translate(121,14)"/>
<path d="M0 0 C1.32 0 2.64 0 4 0 C3.39254603 4.85963179 1.27241033 8.7405518 -1 13 C-1.66 13 -2.32 13 -3 13 C-6 6.375 -6 6.375 -6 3 C-5.34 3 -4.68 3 -4 3 C-4 3.99 -4 4.98 -4 6 C-3.01 6 -2.02 6 -1 6 C-0.67 4.02 -0.34 2.04 0 0 Z " fill="#07315C" transform="translate(136,31)"/>
<path d="M0 0 C2.5625 -0.25 2.5625 -0.25 5 0 C6 1 6 1 6.0625 3.5625 C6.041875 4.366875 6.02125 5.17125 6 6 C4.35 6.66 2.7 7.32 1 8 C0.01 6.35 -0.98 4.7 -2 3 C-1.34 2.01 -0.68 1.02 0 0 Z " fill="#092D55" transform="translate(31,5)"/>
<path d="M0 0 C0.66 0 1.32 0 2 0 C2 4.62 2 9.24 2 14 C3.98 14 5.96 14 8 14 C8 14.66 8 15.32 8 16 C5.36 16 2.72 16 0 16 C0 10.72 0 5.44 0 0 Z " fill="#063564" transform="translate(102,28)"/>
<path d="M0 0 C0.66 0.33 1.32 0.66 2 1 C1.7834375 1.7734375 1.7834375 1.7734375 1.5625 2.5625 C0.84190099 5.68509571 0.42733561 8.82550692 0 12 C-2.97 12 -5.94 12 -9 12 C-9.33 11.34 -9.66 10.68 -10 10 C-9.01 10 -8.02 10 -7 10 C-7 9.34 -7 8.68 -7 8 C-6.34 8 -5.68 8 -5 8 C-4.67 7.01 -4.34 6.02 -4 5 C-4 6.32 -4 7.64 -4 9 C-3.01 9.33 -2.02 9.66 -1 10 C-1.01160156 9.36191406 -1.02320312 8.72382812 -1.03515625 8.06640625 C-1.04417969 7.24011719 -1.05320312 6.41382813 -1.0625 5.5625 C-1.07410156 4.73878906 -1.08570312 3.91507813 -1.09765625 3.06640625 C-1 1 -1 1 0 0 Z " fill="#11223F" transform="translate(122,33)"/>
<path d="M0 0 C-0.75 5.75 -0.75 5.75 -3 8 C-5.2421875 8.484375 -5.2421875 8.484375 -7.875 8.75 C-8.73867187 8.84796875 -9.60234375 8.9459375 -10.4921875 9.046875 C-13.22283899 8.99583479 -14.68653065 8.39884193 -17 7 C-15.60974609 6.92652344 -15.60974609 6.92652344 -14.19140625 6.8515625 C-12.99386719 6.77679688 -11.79632813 6.70203125 -10.5625 6.625 C-9.36753906 6.55539063 -8.17257813 6.48578125 -6.94140625 6.4140625 C-5.97074219 6.27742188 -5.00007813 6.14078125 -4 6 C-3.67 5.34 -3.34 4.68 -3 4 C-3.99 3.67 -4.98 3.34 -6 3 C-2.25 0 -2.25 0 0 0 Z " fill="#112342" transform="translate(89,35)"/>
<path d="M0 0 C2.64 0 5.28 0 8 0 C8 0.33 8 0.66 8 1 C6.02 1 4.04 1 2 1 C2 2.65 2 4.3 2 6 C3.65 6 5.3 6 7 6 C7 6.33 7 6.66 7 7 C5.35 7 3.7 7 2 7 C2 9.64 2 12.28 2 15 C1.34 15 0.68 15 0 15 C0 10.05 0 5.1 0 0 Z " fill="#063666" transform="translate(102,10)"/>
<path d="M0 0 C2.64 0 5.28 0 8 0 C8 0.99 8 1.98 8 3 C5.73783745 4.54779543 3.44775434 5.77612283 1 7 C1.66 5.68 2.32 4.36 3 3 C0.11562221 4.29299694 -1.87219421 5.65941363 -4 8 C-4.99 7.67 -5.98 7.34 -7 7 C-5.47005208 5.76302083 -3.94010417 4.52604167 -2.41015625 3.2890625 C-0.86733563 2.0333609 -0.86733563 2.0333609 0 0 Z " fill="#0D274B" transform="translate(57,15)"/>
<path d="M0 0 C5.75 -0.125 5.75 -0.125 8 1 C8 4.3 8 7.6 8 11 C6.68 10.67 5.36 10.34 4 10 C4.66 8.35 5.32 6.7 6 5 C5.01 4.67 4.02 4.34 3 4 C3.66 4 4.32 4 5 4 C5 3.01 5 2.02 5 1 C3.35 1.33 1.7 1.66 0 2 C0 1.34 0 0.68 0 0 Z " fill="#063463" transform="translate(113,32)"/>
<path d="M0 0 C0.99 0 1.98 0 3 0 C3 5.28 3 10.56 3 16 C2.01 16 1.02 16 0 16 C0 10.72 0 5.44 0 0 Z " fill="#063361" transform="translate(144,9)"/>
<path d="M0 0 C1.65 0 3.3 0 5 0 C5 3.63 5 7.26 5 11 C4.01 11 3.02 11 2 11 C2 7.7 2 4.4 2 1 C1.34 0.67 0.68 0.34 0 0 Z " fill="#07315E" transform="translate(132,14)"/>
<path d="M0 0 C1.65 0 3.3 0 5 0 C2.10933941 9.59453303 2.10933941 9.59453303 -1 13 C-0.125 8.25 -0.125 8.25 1 6 C0.34 6 -0.32 6 -1 6 C-0.67 4.02 -0.34 2.04 0 0 Z " fill="#0E2445" transform="translate(155,13)"/>
<path d="M0 0 C0.99 0 1.98 0 3 0 C3 3.63 3 7.26 3 11 C2.01 11 1.02 11 0 11 C0 7.37 0 3.74 0 0 Z " fill="#06315E" transform="translate(139,14)"/>
<path d="M0 0 C3.45382768 2.66886684 3.97301528 5.89206112 5 10 C5.33 10.99 5.66 11.98 6 13 C5.67 13.66 5.34 14.32 5 15 C3.68 15 2.36 15 1 15 C1.20625 13.824375 1.4125 12.64875 1.625 11.4375 C2.18947526 7.09954633 1.45041373 4.09528583 0 0 Z " fill="#0B264A" transform="translate(148,16)"/>
<path d="M0 0 C0.33 0 0.66 0 1 0 C1.33 4.95 1.66 9.9 2 15 C-0.78167703 12.21832297 -1.2337234 9.831383 -2 6 C-1.125 2.5625 -1.125 2.5625 0 0 Z " fill="#15213E" transform="translate(65,23)"/>
<path d="M0 0 C1.32 0 2.64 0 4 0 C3.25 4.75 3.25 4.75 1 7 C-0.0625 5.1875 -0.0625 5.1875 -1 3 C-0.67 2.01 -0.34 1.02 0 0 Z " fill="#0B274B" transform="translate(136,31)"/>
<path d="M0 0 C0.99 0 1.98 0 3 0 C3 1.65 3 3.3 3 5 C1.68 5.33 0.36 5.66 -1 6 C-1.042721 4.33388095 -1.04063832 2.66617115 -1 1 C-0.67 0.67 -0.34 0.34 0 0 Z " fill="#0C2649" transform="translate(139,9)"/>
</svg>
