<?xml version="1.0" encoding="UTF-8"?>
<svg version="1.1" xmlns="http://www.w3.org/2000/svg" width="132" height="50">
<path d="M0 0 C2.64 0 5.28 0 8 0 C7.67 1.32 7.34 2.64 7 4 C6.01 3.67 5.02 3.34 4 3 C4 3.66 4 4.32 4 5 C5.0725 4.649375 6.145 4.29875 7.25 3.9375 C11 3 11 3 12.8828125 3.47265625 C15.6111104 4.15221385 17.84089189 3.83019072 20.625 3.5 C25.78308026 2.89154013 25.78308026 2.89154013 28 4 C28.66 2.68 29.32 1.36 30 0 C32.31 0 34.62 0 37 0 C37 1.32 37 2.64 37 4 C37.99 4 38.98 4 40 4 C40 4.99 40 5.98 40 7 C40.66 7 41.32 7 42 7 C42 6.01 42 5.02 42 4 C43.32 4 44.64 4 46 4 C44.45730076 8.72065967 42.92205381 13.41664092 41 18 C39.68 18 38.36 18 37 18 C37.33 15.69 37.66 13.38 38 11 C37.67 11.99 37.34 12.98 37 14 C32.90661348 14.04939115 28.81334202 14.08571501 24.71972656 14.10986328 C23.32679219 14.11992877 21.93387898 14.13358234 20.54101562 14.15087891 C18.5404564 14.1751022 16.53974385 14.18540814 14.5390625 14.1953125 C13.33459473 14.20578613 12.13012695 14.21625977 10.88916016 14.22705078 C8 14 8 14 6 12 C6 11.01 6 10.02 6 9 C5.34 8.67 4.68 8.34 4 8 C4 13.61 4 19.22 4 25 C4.99 25 5.98 25 7 25 C7.99 21.535 7.99 21.535 9 18 C12.73437848 17.12132271 16.16774573 16.91087781 20 17 C20.33 17.99 20.66 18.98 21 20 C21.33 19.34 21.66 18.68 22 18 C22.99 18 23.98 18 25 18 C25.33 18.66 25.66 19.32 26 20 C26.33 19.01 26.66 18.02 27 17 C28.32 17 29.64 17 31 17 C30.52269162 18.4589426 30.04308958 19.91713496 29.5625 21.375 C29.29566406 22.18710937 29.02882813 22.99921875 28.75390625 23.8359375 C28 26 28 26 27 28 C26.4225 27.814375 25.845 27.62875 25.25 27.4375 C22.79307475 26.95976454 21.35602466 27.24270636 19 28 C18.67 27.01 18.34 26.02 18 25 C17.67 25.99 17.34 26.98 17 28 C11.39 28 5.78 28 0 28 C0 18.76 0 9.52 0 0 Z M12 23 C11.67 23.66 11.34 24.32 11 25 C11.66 25 12.32 25 13 25 C12.67 24.34 12.34 23.68 12 23 Z " fill="#0E294E" transform="translate(81,11)"/>
<path d="M0 0 C2.31 0 4.62 0 7 0 C7 4.95 7 9.9 7 15 C7.70125 14.01 8.4025 13.02 9.125 12 C11.32959535 9.30900395 11.64418661 9.04028076 15.3125 8.625 C16.199375 8.74875 17.08625 8.8725 18 9 C18 9.99 18 10.98 18 12 C16.25 13.60546875 16.25 13.60546875 14 15.1875 C13.2575 15.71730469 12.515 16.24710938 11.75 16.79296875 C11.1725 17.19128906 10.595 17.58960937 10 18 C10.90933009 19.27609323 11.82782853 20.54565553 12.75 21.8125 C13.26046875 22.52019531 13.7709375 23.22789063 14.296875 23.95703125 C15.93706027 26.08699111 15.93706027 26.08699111 18.203125 27.63671875 C18.79609375 28.08660156 19.3890625 28.53648438 20 29 C20 29.66 20 30.32 20 31 C14.80310881 31.61658031 14.80310881 31.61658031 12 31 C9.82403854 28.93774674 8.39957179 26.63765454 7 24 C7 26.31 7 28.62 7 31 C4.69 31 2.38 31 0 31 C0 20.77 0 10.54 0 0 Z " fill="#0C315B" transform="translate(35,7)"/>
<path d="M0 0 C13 0 13 0 18 4 C19.55024464 7.10048928 19.28992015 9.57894218 19 13 C16.63026145 16.94956425 14.42679525 18.75141672 10 20 C9.01 20 8.02 20 7 20 C7 23.3 7 26.6 7 30 C4.69 30 2.38 30 0 30 C0 20.1 0 10.2 0 0 Z M7 4 C7 7.96 7 11.92 7 16 C10.9714169 15.37158027 10.9714169 15.37158027 13 13 C13.34216235 8.34805286 13.34216235 8.34805286 12 4 C10.35 4 8.7 4 7 4 Z " fill="#073360" transform="translate(5,8)"/>
<path d="M0 0 C3.2027159 0.04591707 4.2473251 0.31092995 7.125 2 C10.15919062 5.30191332 11.25 7.83726149 11.25 12.3125 C6.3 12.3125 1.35 12.3125 -3.75 12.3125 C-2.76 14.2925 -1.77 16.2725 -0.75 18.3125 C2.71941546 17.85427532 5.92395049 17.42118317 9.25 16.3125 C9.0625 18.6875 9.0625 18.6875 8.25 21.3125 C5.24598963 23.25627141 3.32913764 23.31532634 -0.25 23.1875 C-4.06676375 22.23330906 -5.9492823 21.03084365 -8.75 18.3125 C-10.60598295 14.60053409 -10.34092637 10.35367386 -9.75 6.3125 C-7.3125 3.25 -7.3125 3.25 -4.75 1.3125 C-3.75 0.3125 -3.75 0.3125 0 0 Z M-2.75 4.3125 C-3.08 5.9625 -3.41 7.6125 -3.75 9.3125 C-1.11 9.3125 1.53 9.3125 4.25 9.3125 C3.92 7.6625 3.59 6.0125 3.25 4.3125 C1.27 4.3125 -0.71 4.3125 -2.75 4.3125 Z " fill="#0D2C52" transform="translate(62.75,15.6875)"/>
<path d="M0 0 C2.31 0 4.62 0 7 0 C7 7.26 7 14.52 7 22 C4.69 22 2.38 22 0 22 C0 14.74 0 7.48 0 0 Z " fill="#0D3059" transform="translate(25,16)"/>
<path d="M0 0 C0.99 0.33 1.98 0.66 3 1 C3 11.56 3 22.12 3 33 C1.02 33.495 1.02 33.495 -1 34 C-2.49239519 31.01520961 -2.01970809 28.38058368 -1.9140625 25.05859375 C-1.89282318 24.37571793 -1.87158386 23.6928421 -1.84970093 22.98927307 C-1.80344103 21.54590436 -1.75451284 20.10261907 -1.703125 18.65942383 C-1.62519507 16.44304777 -1.55810254 14.22652792 -1.4921875 12.00976562 C-1.44596188 10.60935341 -1.39910832 9.20896176 -1.3515625 7.80859375 C-1.30854004 6.52782959 -1.26551758 5.24706543 -1.22119141 3.92749023 C-1 1 -1 1 0 0 Z " fill="#5F1C1F" transform="translate(76,9)"/>
<path d="M0 0 C4.29 0 8.58 0 13 0 C13 0.33 13 0.66 13 1 C9.37 1 5.74 1 2 1 C2 10.24 2 19.48 2 29 C3.32 29 4.64 29 6 29 C6.02687279 27.18757948 6.04633715 25.37504767 6.0625 23.5625 C6.07410156 22.55316406 6.08570313 21.54382813 6.09765625 20.50390625 C6.28612676 18.05978933 6.28612676 18.05978933 5 17 C4.92728259 14.64686445 4.91629132 12.29166332 4.9375 9.9375 C4.94652344 8.64714844 4.95554687 7.35679688 4.96484375 6.02734375 C4.97644531 5.02832031 4.98804688 4.02929688 5 3 C6.65 3 8.3 3 10 3 C9.01 3.33 8.02 3.66 7 4 C7 7.96 7 11.92 7 16 C8.98 15.01 10.96 14.02 13 13 C12.67 14.32 12.34 15.64 12 17 C12.99 17.33 13.98 17.66 15 18 C12.09399739 19.25664978 10.20395416 20 7 20 C7 23.3 7 26.6 7 30 C4.69 30 2.38 30 0 30 C0 20.1 0 10.2 0 0 Z " fill="#142443" transform="translate(5,8)"/>
<path d="M0 0 C1.32 0.33 2.64 0.66 4 1 C3.67 5.62 3.34 10.24 3 15 C4.32 15.33 5.64 15.66 7 16 C6.01 16 5.02 16 4 16 C4 19.63 4 23.26 4 27 C2.68 27 1.36 27 0 27 C0 18.09 0 9.18 0 0 Z " fill="#053A6C" transform="translate(7,10)"/>
<path d="M0 0 C0 2.97 0 5.94 0 9 C-0.66 9 -1.32 9 -2 9 C-2 7.02 -2 5.04 -2 3 C-2.66 3 -3.32 3 -4 3 C-4 5.31 -4 7.62 -4 10 C-5.32 10 -6.64 10 -8 10 C-8 7.69 -8 5.38 -8 3 C-8.66 3 -9.32 3 -10 3 C-10 4.98 -10 6.96 -10 9 C-10.66 9 -11.32 9 -12 9 C-12 6.36 -12 3.72 -12 1 C-10.56496445 0.63597631 -9.12683494 0.28413409 -7.6875 -0.0625 C-6.88699219 -0.25972656 -6.08648437 -0.45695313 -5.26171875 -0.66015625 C-3 -1 -3 -1 0 0 Z " fill="#0C2B51" transform="translate(109,15)"/>
<path d="M0 0 C0 1.32 0 2.64 0 4 C0.99 4 1.98 4 3 4 C2.67 4.66 2.34 5.32 2 6 C1.34 5.67 0.68 5.34 0 5 C-0.33 7.64 -0.66 10.28 -1 13 C-2.98 13 -4.96 13 -7 13 C-7.08086147 11.20906809 -7.13912702 9.41710372 -7.1875 7.625 C-7.22230469 6.62726562 -7.25710937 5.62953125 -7.29296875 4.6015625 C-7.14794922 3.31378906 -7.14794922 3.31378906 -7 2 C-4 0 -4 0 0 0 Z " fill="#092D56" transform="translate(118,11)"/>
<path d="M0 0 C0.33 0 0.66 0 1 0 C1.09796875 0.77085938 1.1959375 1.54171875 1.296875 2.3359375 C1.44640625 3.33882812 1.5959375 4.34171875 1.75 5.375 C1.88921875 6.37273438 2.0284375 7.37046875 2.171875 8.3984375 C2.74386889 11.14561047 2.74386889 11.14561047 5.078125 12.3515625 C5.71234375 12.56554688 6.3465625 12.77953125 7 13 C7.33 12.34 7.66 11.68 8 11 C8.33 11.33 8.66 11.66 9 12 C12.49734228 11.61140641 15.65788261 11.11403913 19 10 C18.8125 12.375 18.8125 12.375 18 15 C14.99598963 16.94377141 13.07913764 17.00282634 9.5 16.875 C5.68323625 15.92080906 3.8007177 14.71834365 1 12 C-0.26237731 9.47524538 -0.09856404 7.68799534 -0.0625 4.875 C-0.05347656 3.96492188 -0.04445312 3.05484375 -0.03515625 2.1171875 C-0.02355469 1.41851563 -0.01195312 0.71984375 0 0 Z " fill="#0C2C52" transform="translate(53,22)"/>
<path d="M0 0 C0 1.98 0 3.96 0 6 C3.3 6 6.6 6 10 6 C10 6.33 10 6.66 10 7 C6.7 7 3.4 7 0 7 C0.309375 7.928125 0.61875 8.85625 0.9375 9.8125 C1.625 11.875 2.3125 13.9375 3 16 C0.14721517 15.70488433 -0.83578823 15.18767059 -2.75 13 C-4.4428059 8.93726584 -4.25533894 5.34076193 -4 1 C-2 0 -2 0 0 0 Z " fill="#053A6B" transform="translate(58,20)"/>
<path d="M0 0 C2.875 0.6875 2.875 0.6875 6 2 C7.64530416 4.91667555 8 6.64720982 8 10 C3.05 10 -1.9 10 -7 10 C-6.67 11.65 -6.34 13.3 -6 15 C-6.66 14.67 -7.32 14.34 -8 14 C-8 12.35 -8 10.7 -8 9 C-4.7 8.67 -1.4 8.34 2 8 C2 6.35 2 4.7 2 3 C1.34 3 0.68 3 0 3 C0 2.01 0 1.02 0 0 Z " fill="#09315C" transform="translate(66,18)"/>
<path d="M0 0 C1.65 0 3.3 0 5 0 C4.01 0.33 3.02 0.66 2 1 C2 4.96 2 8.92 2 13 C3.98 12.01 5.96 11.02 8 10 C7.67 11.32 7.34 12.64 7 14 C7.99 14.33 8.98 14.66 10 15 C7.04335481 16.4783226 4.25770263 16.06032783 1 16 C-0.50156874 12.99686252 -0.09281204 10.20932478 -0.0625 6.875 C-0.05347656 5.59367187 -0.04445313 4.31234375 -0.03515625 2.9921875 C-0.02355469 2.00476563 -0.01195312 1.01734375 0 0 Z " fill="#0C2A50" transform="translate(10,11)"/>
<path d="M0 0 C1.32 0 2.64 0 4 0 C4.33 0.99 4.66 1.98 5 3 C5.33 2.34 5.66 1.68 6 1 C6.99 1.33 7.98 1.66 9 2 C8.34 2 7.68 2 7 2 C7 3.32 7 4.64 7 6 C6.01 6.33 5.02 6.66 4 7 C4 7.99 4 8.98 4 10 C4.66 10.33 5.32 10.66 6 11 C5.01 11 4.02 11 3 11 C2.67 10.01 2.34 9.02 2 8 C1.34 8.99 0.68 9.98 0 11 C0 7.33333333 0 3.66666667 0 0 Z " fill="#172948" transform="translate(97,28)"/>
<path d="M0 0 C0.886875 0.12375 1.77375 0.2475 2.6875 0.375 C2.6875 1.365 2.6875 2.355 2.6875 3.375 C0.71875 5.19921875 0.71875 5.19921875 -1.8125 7.0625 C-2.6478125 7.68511719 -3.483125 8.30773437 -4.34375 8.94921875 C-4.9934375 9.41972656 -5.643125 9.89023437 -6.3125 10.375 C-6.9725 9.055 -7.6325 7.735 -8.3125 6.375 C-4.12788462 0.46730769 -4.12788462 0.46730769 0 0 Z " fill="#08305C" transform="translate(50.3125,15.625)"/>
<path d="M0 0 C2.31 0 4.62 0 7 0 C6.67 0.99 6.34 1.98 6 3 C4.68 2.67 3.36 2.34 2 2 C2 2.99 2 3.98 2 5 C2.99 5.33 3.98 5.66 5 6 C4.01 6 3.02 6 2 6 C2 7.98 2 9.96 2 12 C1.34 12 0.68 12 0 12 C0 8.04 0 4.08 0 0 Z " fill="#08325E" transform="translate(82,12)"/>
<path d="M0 0 C2 2 2 2 2.125 5.625 C2.08375 6.73875 2.0425 7.8525 2 9 C1.34 9 0.68 9 0 9 C0 6.69 0 4.38 0 2 C-0.99 2.495 -0.99 2.495 -2 3 C-2.65772428 6.02934491 -2.65772428 6.02934491 -3 9 C-3.66 9 -4.32 9 -5 9 C-5 6.36 -5 3.72 -5 1 C-2.625 0.375 -2.625 0.375 0 0 Z " fill="#063462" transform="translate(102,15)"/>
<path d="M0 0 C2.0625 0.4375 2.0625 0.4375 4 1 C4.33 2.32 4.66 3.64 5 5 C3.125 6.0625 3.125 6.0625 1 7 C0.34 6.67 -0.32 6.34 -1 6 C-1.042721 4.33388095 -1.04063832 2.66617115 -1 1 C-0.67 0.67 -0.34 0.34 0 0 Z " fill="#0F2D53" transform="translate(27,8)"/>
<path d="M0 0 C0.66 0.33 1.32 0.66 2 1 C2 3.64 2 6.28 2 9 C-0.31 9 -2.62 9 -5 9 C-5 7.35 -5 5.7 -5 4 C-4.67 4.99 -4.34 5.98 -4 7 C-2.68 7 -1.36 7 0 7 C0 4.69 0 2.38 0 0 Z " fill="#063360" transform="translate(95,30)"/>
<path d="M0 0 C1.32 0 2.64 0 4 0 C3.01 2.97 2.02 5.94 1 9 C0.67 7.68 0.34 6.36 0 5 C-0.66 5 -1.32 5 -2 5 C-2 4.34 -2 3.68 -2 3 C-1.34 3 -0.68 3 0 3 C0 2.01 0 1.02 0 0 Z " fill="#12284B" transform="translate(123,15)"/>
<path d="M0 0 C1.32 0 2.64 0 4 0 C3.34 2.31 2.68 4.62 2 7 C1.67 6.34 1.34 5.68 1 5 C0.01 4.67 -0.98 4.34 -2 4 C-1.34 2.68 -0.68 1.36 0 0 Z " fill="#1A2948" transform="translate(108,28)"/>
<path d="M0 0 C1.98 0 3.96 0 6 0 C6 0.99 6 1.98 6 3 C3.5 4.6875 3.5 4.6875 1 6 C0 3 0 3 0 0 Z " fill="#132A4C" transform="translate(47,16)"/>
<path d="M0 0 C0.33 0.99 0.66 1.98 1 3 C1.66 3.33 2.32 3.66 3 4 C2.67 4.99 2.34 5.98 2 7 C0.68 7 -0.64 7 -2 7 C-1.34 4.69 -0.68 2.38 0 0 Z " fill="#162A4A" transform="translate(120,22)"/>
</svg>
