<?xml version="1.0" encoding="UTF-8"?>
<svg version="1.1" xmlns="http://www.w3.org/2000/svg" width="182" height="56">
<path d="M0 0 C2.97 0 5.94 0 9 0 C9 6.93 9 13.86 9 21 C15.59577396 16.13183292 15.59577396 16.13183292 17 13 C19.97 13 22.94 13 26 13 C26 13.99 26 14.98 26 16 C24.948125 16.556875 23.89625 17.11375 22.8125 17.6875 C19.26046527 19.7017636 16.75086314 21.9990584 14 25 C15.61249004 28.67822053 17.89746249 31.53024166 20.4375 34.625 C21.21996094 35.58664063 22.00242187 36.54828125 22.80859375 37.5390625 C24.94266597 40.14414001 24.94266597 40.14414001 28 42 C28 42.66 28 43.32 28 44 C24.27349953 44.34695004 20.71504193 44.52150371 17 44 C14.5625 41.3125 14.5625 41.3125 13 38 C11.68456721 36.31916921 10.35683751 34.6475884 9 33 C9 36.63 9 40.26 9 44 C6.03 44 3.06 44 0 44 C-0.92645446 41.22063662 -1.10056322 39.74256078 -1.02172852 36.89575195 C-1.00163223 36.07512772 -0.98153595 35.25450348 -0.96083069 34.40901184 C-0.93379562 33.52767075 -0.90676056 32.64632965 -0.87890625 31.73828125 C-0.85529526 30.83248825 -0.83168427 29.92669525 -0.80735779 28.99345398 C-0.73076856 26.09964135 -0.64672369 23.20609952 -0.5625 20.3125 C-0.50927458 18.35092472 -0.45653421 16.38933622 -0.40429688 14.42773438 C-0.27515978 9.61831801 -0.13933558 4.80913127 0 0 Z " fill="#08325E" transform="translate(47,4)"/>
<path d="M0 0 C17 0 17 0 23 4 C25.87676844 6.99892421 26.47490811 9.18400207 26.5625 13.3125 C26.42596621 18.41886375 25.27892539 21.14201913 21.640625 24.6953125 C17.25994159 28.17899883 13.48699203 28.21517616 8 28 C8.165 28.804375 8.33 29.60875 8.5 30.4375 C9.09669496 34.68895157 9.06502178 38.70856251 9 43 C6.03 43 3.06 43 0 43 C0 28.81 0 14.62 0 0 Z M8 5 C8 10.94 8 16.88 8 23 C13.73597664 23.63212673 13.73597664 23.63212673 16.375 21.0625 C18.56762847 16.93023866 18.6843996 13.5854773 18 9 C17.15479867 6.34155783 17.15479867 6.34155783 15 5 C12.69 5 10.38 5 8 5 Z " fill="#07325E" transform="translate(4,5)"/>
<path d="M0 0 C3.16851437 2.56177757 5.73223597 5.08145662 7 9 C7.1875 12.6875 7.1875 12.6875 7 16 C6 17 6 17 4.05053711 17.02172852 C2.8015564 16.95103149 2.8015564 16.95103149 1.52734375 16.87890625 C0.62822266 16.83056641 -0.27089844 16.78222656 -1.19726562 16.73242188 C-2.14279297 16.67634766 -3.08832031 16.62027344 -4.0625 16.5625 C-5.01189453 16.51029297 -5.96128906 16.45808594 -6.93945312 16.40429688 C-9.29326952 16.27418642 -11.64670699 16.13920888 -14 16 C-13.5504955 17.31554985 -13.09010284 18.62738358 -12.625 19.9375 C-12.36976562 20.66839844 -12.11453125 21.39929688 -11.8515625 22.15234375 C-11.14728587 24.18682116 -11.14728587 24.18682116 -9 25 C-4.75964245 25.40003373 -2.71437126 25.50799734 0.8125 23 C1.8953125 22.01 1.8953125 22.01 3 21 C3.66 21 4.32 21 5 21 C4.875 24.3125 4.875 24.3125 4 28 C0.23936243 30.84340889 -3.28139145 31.48672923 -7.98046875 31.2890625 C-13.32288777 30.52438357 -17.71187892 28.26237918 -21 24 C-23.21305138 19.02063439 -24.05509597 14.19526222 -22.3125 8.91796875 C-20.15656945 4.07610806 -17.804707 1.50245156 -13 -1 C-8.41649696 -2.52783435 -4.46240975 -1.62559212 0 0 Z M-12.25 4.75 C-14.40929374 7.05116172 -14.40929374 7.05116172 -14 11 C-9.71 11 -5.42 11 -1 11 C-2.31297122 5.01461763 -2.31297122 5.01461763 -6 3 C-9.94883828 2.59070626 -9.94883828 2.59070626 -12.25 4.75 Z " fill="#0B2E56" transform="translate(95,18)"/>
<path d="M0 0 C1.98 0 3.96 0 6 0 C5.67 5.28 5.34 10.56 5 16 C10.01748266 15.6057973 10.01748266 15.6057973 11.6875 12.5 C12.120625 11.675 12.55375 10.85 13 10 C13.66 9.67 14.32 9.34 15 9 C14.01 9 13.02 9 12 9 C12.33 7.68 12.66 6.36 13 5 C16.76423216 4.23004342 19.32758204 3.96713245 23 5 C24.99963028 5.03845443 27.00051633 5.04544281 29 5 C29.66 6.65 30.32 8.3 31 10 C31.66 8.68 32.32 7.36 33 6 C33.99 6 34.98 6 36 6 C36.66 7.32 37.32 8.64 38 10 C38.66 8.35 39.32 6.7 40 5 C41.32 5 42.64 5 44 5 C43.37321829 8.66172475 42.35548154 11.8818995 40.9375 15.3125 C40.57527344 16.19550781 40.21304688 17.07851563 39.83984375 17.98828125 C39.56269531 18.65214844 39.28554687 19.31601562 39 20 C36.13275314 19.42655063 35.1385485 19.1385485 33 17 C32.505 18.485 32.505 18.485 32 20 C30.1875 19.9375 30.1875 19.9375 28 19 C26.25 15.4375 26.25 15.4375 25 12 C24.67 14.64 24.34 17.28 24 20 C16.08 20 8.16 20 0 20 C0 13.4 0 6.8 0 0 Z M16 13 C16 13.99 16 14.98 16 16 C16.99 16 17.98 16 19 16 C19 15.01 19 14.02 19 13 C18.01 13 17.02 13 16 13 Z " fill="#0E284B" transform="translate(113,30)"/>
<path d="M0 0 C1.32 0.33 2.64 0.66 4 1 C4 6.94 4 12.88 4 19 C0.7 19 -2.6 19 -6 19 C-6.495 14.05 -6.495 14.05 -7 9 C-7.66 9 -8.32 9 -9 9 C-8.67 12.3 -8.34 15.6 -8 19 C-9.98 19 -11.96 19 -14 19 C-14 15.7 -14 12.4 -14 9 C-14.33 9 -14.66 9 -15 9 C-15.33 12.3 -15.66 15.6 -16 19 C-18.43816585 19.0809723 -20.87364384 19.14046972 -23.3125 19.1875 C-24.34793945 19.22520508 -24.34793945 19.22520508 -25.40429688 19.26367188 C-30.50148817 19.33754421 -30.50148817 19.33754421 -32.99609375 17.6484375 C-34 16 -34 16 -33.75 13.4375 C-33 11 -33 11 -32 9 C-32 7.68 -32 6.36 -32 5 C-28.61608307 3.93648325 -27.4195366 3.78557018 -24.1875 5.4375 C-23.465625 5.953125 -22.74375 6.46875 -22 7 C-21.67 6.34 -21.34 5.68 -21 5 C-14.33333333 5 -7.66666667 5 -1 5 C-0.67 3.35 -0.34 1.7 0 0 Z M-1 8 C-1 10.64 -1 13.28 -1 16 C-0.67 16 -0.34 16 0 16 C0 13.36 0 10.72 0 8 C-0.33 8 -0.66 8 -1 8 Z M-27 12 C-27.99 12.495 -27.99 12.495 -29 13 C-28.67 13.99 -28.34 14.98 -28 16 C-27.34 15.67 -26.68 15.34 -26 15 C-26.33 14.01 -26.66 13.02 -27 12 Z " fill="#0F2546" transform="translate(156,10)"/>
<path d="M0 0 C2.97 0 5.94 0 9 0 C9 10.23 9 20.46 9 31 C6.03 31 3.06 31 0 31 C0 20.77 0 10.54 0 0 Z " fill="#07325F" transform="translate(33,17)"/>
<path d="M0 0 C0.79019531 0.00902344 1.58039062 0.01804687 2.39453125 0.02734375 C3.28205078 0.04474609 3.28205078 0.04474609 4.1875 0.0625 C4.1875 1.0525 4.1875 2.0425 4.1875 3.0625 C1.2175 2.7325 -1.7525 2.4025 -4.8125 2.0625 C-4.8125 9.3225 -4.8125 16.5825 -4.8125 24.0625 C-2.8325 24.0625 -0.8525 24.0625 1.1875 24.0625 C1.1875 24.3925 1.1875 24.7225 1.1875 25.0625 C-0.7925 25.0625 -2.7725 25.0625 -4.8125 25.0625 C-4.4825 30.3425 -4.1525 35.6225 -3.8125 41.0625 C-6.1225 41.0625 -8.4325 41.0625 -10.8125 41.0625 C-10.4825 27.8625 -10.1525 14.6625 -9.8125 1.0625 C-6.19060828 0.33812166 -3.57484736 -0.05335593 0 0 Z " fill="#043A6C" transform="translate(15.8125,5.9375)"/>
<path d="M0 0 C1.65 0 3.3 0 5 0 C5 1.98 5 3.96 5 6 C6.32 6 7.64 6 9 6 C9.66 7.65 10.32 9.3 11 11 C12.93798263 8.22739701 12.93798263 8.22739701 14 6 C15.32 6 16.64 6 18 6 C17.29937517 10.56736441 15.68729793 14.5699505 13.9375 18.8125 C13.65583984 19.50537109 13.37417969 20.19824219 13.08398438 20.91210938 C12.39325027 22.60967624 11.69716272 24.30506312 11 26 C9.68 26 8.36 26 7 26 C7.09539062 25.39671875 7.19078125 24.7934375 7.2890625 24.171875 C7.45535156 22.97304688 7.45535156 22.97304688 7.625 21.75 C7.74101562 20.96109375 7.85703125 20.1721875 7.9765625 19.359375 C8.00319395 16.67847541 7.36592084 15.27305911 6 13 C5.67 15.31 5.34 17.62 5 20 C3.35 20 1.7 20 0 20 C0 13.4 0 6.8 0 0 Z " fill="#102241" transform="translate(161,9)"/>
<path d="M0 0 C1.32 0 2.64 0 4 0 C4 15.51 4 31.02 4 47 C2.68 47 1.36 47 0 47 C0 31.49 0 15.98 0 0 Z " fill="#7F1712" transform="translate(105,7)"/>
<path d="M0 0 C0.8971875 0.309375 0.8971875 0.309375 1.8125 0.625 C0.6059375 0.99625 0.6059375 0.99625 -0.625 1.375 C-1.470625 1.7875 -2.31625 2.2 -3.1875 2.625 C-3.92073796 4.64008358 -3.92073796 4.64008358 -4.1875 6.625 C-5.1775 7.12 -5.1775 7.12 -6.1875 7.625 C-6.5175 9.275 -6.8475 10.925 -7.1875 12.625 C-2.2375 12.625 2.7125 12.625 7.8125 12.625 C7.8125 12.955 7.8125 13.285 7.8125 13.625 C2.8625 13.625 -2.0875 13.625 -7.1875 13.625 C-6.5275 16.925 -5.8675 20.225 -5.1875 23.625 C-4.5275 23.625 -3.8675 23.625 -3.1875 23.625 C-3.1875 24.285 -3.1875 24.945 -3.1875 25.625 C1.4325 25.625 6.0525 25.625 10.8125 25.625 C10.8125 26.285 10.8125 26.945 10.8125 27.625 C5.40068405 29.42893865 -0.78018886 29.54694895 -6.125 27.5 C-10.29392489 23.71006828 -12.44079222 20.40338534 -12.875 14.75 C-12.68543328 9.52111794 -10.58454459 6.87396805 -7.01171875 3.21875 C-2.78169272 -0.47686161 -2.78169272 -0.47686161 0 0 Z " fill="#043A6C" transform="translate(86.1875,18.375)"/>
<path d="M0 0 C1.14662109 0.23976563 1.14662109 0.23976563 2.31640625 0.484375 C4.68094488 1.33787329 5.81389417 2.36184497 7.4375 4.25 C6.426875 3.92 5.41625 3.59 4.375 3.25 C0.52169371 2.20542902 -2.54633541 1.61586875 -6.5625 2.25 C-10.08989511 4.66680202 -13.62553042 7.37606084 -15.5625 11.25 C-16.11508891 16.28671207 -16.10179549 20.17140903 -13.8125 24.75 C-10.64973359 28.2641849 -8.87760262 29.17561637 -4.109375 29.4453125 C-2.85640625 29.42210938 -1.6034375 29.39890625 -0.3125 29.375 C1.58242187 29.34792969 1.58242187 29.34792969 3.515625 29.3203125 C4.47984375 29.29710938 5.4440625 29.27390625 6.4375 29.25 C6.4375 28.59 6.4375 27.93 6.4375 27.25 C5.4475 27.58 4.4575 27.91 3.4375 28.25 C1.91888245 28.34203743 0.39639574 28.38001284 -1.125 28.375 C-1.91003906 28.37757812 -2.69507812 28.38015625 -3.50390625 28.3828125 C-5.5625 28.25 -5.5625 28.25 -7.5625 27.25 C-7.2325 26.59 -6.9025 25.93 -6.5625 25.25 C-5.9025 25.58 -5.2425 25.91 -4.5625 26.25 C-0.32214245 26.65003373 1.72312874 26.75799734 5.25 24.25 C6.3328125 23.26 6.3328125 23.26 7.4375 22.25 C8.0975 22.25 8.7575 22.25 9.4375 22.25 C9.3125 25.5625 9.3125 25.5625 8.4375 29.25 C4.67686243 32.09340889 1.15610855 32.73672923 -3.54296875 32.5390625 C-8.88538777 31.77438357 -13.27437892 29.51237918 -16.5625 25.25 C-18.77555138 20.27063439 -19.61759597 15.44526222 -17.875 10.16796875 C-15.71906945 5.32610806 -13.367207 2.75245156 -8.5625 0.25 C-5.4152524 -0.81631592 -3.23055596 -0.72154549 0 0 Z " fill="#102546" transform="translate(90.5625,16.75)"/>
<path d="M0 0 C17 0 17 0 22 3 C21.01 3.495 21.01 3.495 20 4 C19.17242188 3.53980469 19.17242188 3.53980469 18.328125 3.0703125 C15.07516594 1.57482461 12.30928553 1.80908731 8.75 1.875 C7.48671875 1.89304687 6.2234375 1.91109375 4.921875 1.9296875 C3.95765625 1.95289063 2.9934375 1.97609375 2 2 C2.00523682 3.10512939 2.01047363 4.21025879 2.01586914 5.34887695 C2.03396215 9.44701325 2.04544778 13.54514602 2.05493164 17.64331055 C2.059962 19.41740513 2.06678699 21.19149556 2.07543945 22.96557617 C2.08756174 25.51482161 2.09324126 28.06401226 2.09765625 30.61328125 C2.10281754 31.40712723 2.10797882 32.20097321 2.11329651 33.01887512 C2.11362877 36.27656286 2.03772826 38.88681521 1 42 C3.31 42 5.62 42 8 42 C7.67 41.34 7.34 40.68 7 40 C6.92883618 37.62597499 6.91590915 35.24999323 6.9375 32.875 C6.94652344 31.59367187 6.95554687 30.31234375 6.96484375 28.9921875 C6.97644531 28.00476563 6.98804688 27.01734375 7 26 C7.81984375 25.91363281 8.6396875 25.82726562 9.484375 25.73828125 C15.96201518 24.99127841 15.96201518 24.99127841 21.625 22.0625 C23.65833978 17.53369776 24.34798032 12.89872679 25 8 C25.33 8 25.66 8 26 8 C26.90511151 17.26901233 26.90511151 17.26901233 24.83984375 21.21875 C22.04967857 24.58692894 19.36354462 27.04214874 15 28 C12.6679198 28.07646165 10.33154122 28.09143299 8 28 C8.165 28.804375 8.33 29.60875 8.5 30.4375 C9.09669496 34.68895157 9.06502178 38.70856251 9 43 C6.03 43 3.06 43 0 43 C0 28.81 0 14.62 0 0 Z " fill="#0D2547" transform="translate(4,5)"/>
<path d="M0 0 C3.96 0 7.92 0 12 0 C11.67 1.32 11.34 2.64 11 4 C9.02 4 7.04 4 5 4 C5 4.99 5 5.98 5 7 C6.65 6.67 8.3 6.34 10 6 C10 7.65 10 9.3 10 11 C8.68 11 7.36 11 6 11 C5.67 13.64 5.34 16.28 5 19 C3.35 19 1.7 19 0 19 C0 12.73 0 6.46 0 0 Z " fill="#102443" transform="translate(113,10)"/>
<path d="M0 0 C1.32 0 2.64 0 4 0 C3.37321829 3.66172475 2.35548154 6.8818995 0.9375 10.3125 C0.57527344 11.19550781 0.21304688 12.07851563 -0.16015625 12.98828125 C-0.43730469 13.65214844 -0.71445313 14.31601562 -1 15 C-3.86724686 14.42655063 -4.8614515 14.1385485 -7 12 C-7.33 12.99 -7.66 13.98 -8 15 C-9.32 14.67 -10.64 14.34 -12 14 C-12.66 11.69 -13.32 9.38 -14 7 C-13.34 7 -12.68 7 -12 7 C-11.67 8.98 -11.34 10.96 -11 13 C-10.34 13 -9.68 13 -9 13 C-8.67 11.68 -8.34 10.36 -8 9 C-6.68 9.33 -5.36 9.66 -4 10 C-4 10.99 -4 11.98 -4 13 C-3.34 13 -2.68 13 -2 13 C-1.67 11.35 -1.34 9.7 -1 8 C-1.99 8 -2.98 8 -4 8 C-4.66 6.68 -5.32 5.36 -6 4 C-7.485 6.475 -7.485 6.475 -9 9 C-9.66 8.67 -10.32 8.34 -11 8 C-10.67 6.68 -10.34 5.36 -10 4 C-9.67 4.33 -9.34 4.66 -9 5 C-8.34 3.68 -7.68 2.36 -7 1 C-6.01 1 -5.02 1 -4 1 C-3.34 2.32 -2.68 3.64 -2 5 C-1.34 3.35 -0.68 1.7 0 0 Z " fill="#0E2648" transform="translate(153,35)"/>
<path d="M0 0 C2.97 0 5.94 0 9 0 C9 0.99 9 1.98 9 3 C7.96875 3.515625 6.9375 4.03125 5.875 4.5625 C2.15622433 6.65195408 -0.16206025 9.24970048 -2.73828125 12.609375 C-3.15464844 13.06828125 -3.57101563 13.5271875 -4 14 C-4.66 14 -5.32 14 -6 14 C-4.79618552 11.50638429 -3.54571278 9.31856917 -2 7 C-2.99 7.66 -3.98 8.32 -5 9 C-5.99 8.67 -6.98 8.34 -8 8 C-7.50628906 7.59007812 -7.01257812 7.18015625 -6.50390625 6.7578125 C-5.86324219 6.21898437 -5.22257812 5.68015625 -4.5625 5.125 C-3.92441406 4.59132813 -3.28632812 4.05765625 -2.62890625 3.5078125 C-0.89194996 2.0777243 -0.89194996 2.0777243 0 0 Z " fill="#0C2B51" transform="translate(64,17)"/>
<path d="M0 0 C0.99 0 1.98 0 3 0 C3.66 2.31 4.32 4.62 5 7 C6.65 5.35 8.3 3.7 10 2 C10.66 3.65 11.32 5.3 12 7 C12.99 6.34 13.98 5.68 15 5 C14.125 9.75 14.125 9.75 13 12 C12.34 12 11.68 12 11 12 C10.67 11.01 10.34 10.02 10 9 C9.01 8.67 8.02 8.34 7 8 C6.67 9.32 6.34 10.64 6 12 C5.34 12 4.68 12 4 12 C3.67 10.02 3.34 8.04 3 6 C2.34 6 1.68 6 1 6 C0.67 4.02 0.34 2.04 0 0 Z " fill="#053666" transform="translate(138,36)"/>
<path d="M0 0 C2.97 0 5.94 0 9 0 C10.20272819 2.40545638 10.10071472 3.94996953 10.0625 6.625 C10.05347656 7.44226563 10.04445312 8.25953125 10.03515625 9.1015625 C10.02355469 9.72804688 10.01195312 10.35453125 10 11 C9.34 11 8.68 11 8 11 C7.95101562 10.36191406 7.90203125 9.72382813 7.8515625 9.06640625 C7.77679688 8.24011719 7.70203125 7.41382813 7.625 6.5625 C7.52058594 5.32693359 7.52058594 5.32693359 7.4140625 4.06640625 C7.27742187 3.38449219 7.14078125 2.70257812 7 2 C6.34 1.67 5.68 1.34 5 1 C5 1.66 5 2.32 5 3 C4.34 3 3.68 3 3 3 C3 5.97 3 8.94 3 12 C2.01 12 1.02 12 0 12 C0 8.04 0 4.08 0 0 Z " fill="#063463" transform="translate(136,16)"/>
<path d="M0 0 C0.99 0 1.98 0 3 0 C3 3.96 3 7.92 3 12 C-0.3 12 -3.6 12 -7 12 C-7 9.69 -7 7.38 -7 5 C-5.68 4.67 -4.36 4.34 -3 4 C-3.66 5.98 -4.32 7.96 -5 10 C-3.35 10 -1.7 10 0 10 C0 6.7 0 3.4 0 0 Z " fill="#063260" transform="translate(133,37)"/>
<path d="M0 0 C1.65 0.99 3.3 1.98 5 3 C4.125 7.875 4.125 7.875 3 9 C0.5625 9.25 0.5625 9.25 -2 9 C-4 6 -4 6 -3.8125 3.9375 C-3 2 -3 2 0 0 Z " fill="#0C2E55" transform="translate(37,5)"/>
<path d="M0 0 C0.99 0 1.98 0 3 0 C3 5.94 3 11.88 3 18 C2.01 18 1.02 18 0 18 C0 12.06 0 6.12 0 0 Z " fill="#063260" transform="translate(162,10)"/>
<path d="M0 0 C2.97 0 5.94 0 9 0 C9 0.66 9 1.32 9 2 C6.69 2 4.38 2 2 2 C2 3.65 2 5.3 2 7 C3.65 7 5.3 7 7 7 C7 7.33 7 7.66 7 8 C5.35 8 3.7 8 2 8 C2 10.97 2 13.94 2 17 C1.34 17 0.68 17 0 17 C0 11.39 0 5.78 0 0 Z " fill="#063565" transform="translate(115,11)"/>
<path d="M0 0 C0.66 0 1.32 0 2 0 C5 5.75 5 5.75 5 8 C5.66 8 6.32 8 7 8 C6.01 10.97 5.02 13.94 4 17 C3.67 17 3.34 17 3 17 C2.86722656 16.37351562 2.73445312 15.74703125 2.59765625 15.1015625 C2.42105469 14.28429688 2.24445313 13.46703125 2.0625 12.625 C1.88847656 11.81289063 1.71445313 11.00078125 1.53515625 10.1640625 C1.07669307 7.970537 1.07669307 7.970537 0 6 C-0.039992 4.00039988 -0.04346799 1.99952758 0 0 Z " fill="#08315D" transform="translate(167,16)"/>
<path d="M0 0 C0.66 0.33 1.32 0.66 2 1 C2 4.3 2 7.6 2 11 C-4.15234375 11.09765625 -4.15234375 11.09765625 -6 11 C-7 10 -7 10 -7.0625 7.4375 C-7.041875 6.633125 -7.02125 5.82875 -7 5 C-6.01 4.67 -5.02 4.34 -4 4 C-4 5.65 -4 7.3 -4 9 C-3.01 9 -2.02 9 -1 9 C-0.67 7.35 -0.34 5.7 0 4 C-0.99 3.67 -1.98 3.34 -3 3 C-2.01 3 -1.02 3 0 3 C0 2.01 0 1.02 0 0 Z " fill="#053666" transform="translate(131,17)"/>
<path d="M0 0 C2.72977064 -0.08126109 5.4571017 -0.14061663 8.1875 -0.1875 C9.34088867 -0.22520508 9.34088867 -0.22520508 10.51757812 -0.26367188 C15.2197028 -0.32421425 18.11834041 0.03624789 22 3 C21.01 3.495 21.01 3.495 20 4 C19.17242188 3.53980469 19.17242188 3.53980469 18.328125 3.0703125 C15.07516594 1.57482461 12.30928553 1.80908731 8.75 1.875 C7.48671875 1.89304687 6.2234375 1.91109375 4.921875 1.9296875 C3.95765625 1.95289063 2.9934375 1.97609375 2 2 C2 3.65 2 5.3 2 7 C1.34 6.67 0.68 6.34 0 6 C0 4.02 0 2.04 0 0 Z " fill="#162441" transform="translate(4,5)"/>
<path d="M0 0 C1.98 0.99 1.98 0.99 4 2 C4 2.66 4 3.32 4 4 C5.65 4 7.3 4 9 4 C8.67 2.68 8.34 1.36 8 0 C10.03833424 1.2739589 12.03852126 2.61061923 14 4 C14 4.66 14 5.32 14 6 C10.37 6 6.74 6 3 6 C2.01 4.02 1.02 2.04 0 0 Z " fill="#0A294E" transform="translate(61,42)"/>
<path d="M0 0 C2.97 0.495 2.97 0.495 6 1 C6 4.63 6 8.26 6 12 C5.01 12 4.02 12 3 12 C2.92652344 10.95199219 2.92652344 10.95199219 2.8515625 9.8828125 C2.73941406 8.51769531 2.73941406 8.51769531 2.625 7.125 C2.55539063 6.22007813 2.48578125 5.31515625 2.4140625 4.3828125 C2.20431868 1.82058097 2.20431868 1.82058097 0 0 Z " fill="#063361" transform="translate(148,16)"/>
<path d="M0 0 C4.55555556 1.55555556 4.55555556 1.55555556 6 3 C6.07226502 4.85287502 6.0838122 6.70833878 6.0625 8.5625 C6.05347656 9.57441406 6.04445312 10.58632813 6.03515625 11.62890625 C6.02355469 12.41136719 6.01195312 13.19382812 6 14 C5.67 14 5.34 14 5 14 C4.67 10.7 4.34 7.4 4 4 C3.34 4.66 2.68 5.32 2 6 C2 5.34 2 4.68 2 4 C0.35 4 -1.3 4 -3 4 C-2.67 3.01 -2.34 2.02 -2 1 C-1.34 0.67 -0.68 0.34 0 0 Z " fill="#0B294F" transform="translate(128,14)"/>
<path d="M0 0 C1.98 0.495 1.98 0.495 4 1 C4 3.31 4 5.62 4 8 C3.67 7.34 3.34 6.68 3 6 C2.01 6 1.02 6 0 6 C-0.33 6.66 -0.66 7.32 -1 8 C-1.125 2.25 -1.125 2.25 0 0 Z " fill="#132545" transform="translate(156,10)"/>
<path d="M0 0 C1.32 0 2.64 0 4 0 C3.50510384 3.66223158 2.94323463 5.66993926 0 8 C-0.33 8 -0.66 8 -1 8 C-1.125 2.25 -1.125 2.25 0 0 Z " fill="#0B294F" transform="translate(175,15)"/>
<path d="M0 0 C1.32 0.33 2.64 0.66 4 1 C0.535 3.97 0.535 3.97 -3 7 C-2.25 2.25 -2.25 2.25 0 0 Z " fill="#0B2E56" transform="translate(78,19)"/>
<path d="M0 0 C0.99 0.33 1.98 0.66 3 1 C2.67 2.65 2.34 4.3 2 6 C1.01 6.33 0.02 6.66 -1 7 C-1.04254356 5.00045254 -1.04080783 2.99958364 -1 1 C-0.67 0.67 -0.34 0.34 0 0 Z " fill="#053667" transform="translate(127,41)"/>
<path d="M0 0 C1.98 0 3.96 0 6 0 C6.33 0.66 6.66 1.32 7 2 C4.33333333 2.66666667 1.66666667 3.33333333 -1 4 C-1.33 3.34 -1.66 2.68 -2 2 C-1.34 2 -0.68 2 0 2 C0 1.34 0 0.68 0 0 Z " fill="#0A274C" transform="translate(147,15)"/>
</svg>
