<?xml version="1.0" encoding="UTF-8"?>
<svg version="1.1" xmlns="http://www.w3.org/2000/svg" width="186" height="50">
<path d="M0 0 C61.38 0 122.76 0 186 0 C186 16.5 186 33 186 50 C124.62 50 63.24 50 0 50 C0 33.5 0 17 0 0 Z " fill="#FAFBFB" transform="translate(0,0)"/>
<path d="M0 0 C17 0 17 0 23 4 C25.34886413 6.98946344 25.42407029 10.22501155 25.3125 13.9765625 C24.58654866 18.67709744 21.71282925 21.38437474 18.25 24.375 C15 26 15 26 7 26 C7 31.28 7 36.56 7 42 C4.36 42 1.72 42 -1 42 C-0.67 28.14 -0.34 14.28 0 0 Z " fill="#204D78" transform="translate(5,5)"/>
<path d="M0 0 C3.62979059 2.35264205 7.04192716 5.08385432 9 9 C9 11.31 9 13.62 9 16 C1.74 16 -5.52 16 -13 16 C-9.96924351 24.27007587 -9.96924351 24.27007587 -7 27 C-1.3160197 27.47366503 1.99774887 27.00135068 7 24 C6.1875 26.9375 6.1875 26.9375 5 30 C-1.0565385 32.01884617 -7.75846411 32.02245497 -13.5625 29.375 C-17.94555468 25.10433134 -19.18380711 21.53134393 -19.4375 15.5 C-19.28328838 10.55852337 -18.44598529 7.71803675 -15 4 C-10.41245891 -0.05410608 -5.95815892 -1.5346773 0 0 Z " fill="#154572" transform="translate(94,16)"/>
<path d="M0 0 C2.64 0 5.28 0 8 0 C8 7.59 8 15.18 8 23 C13.10195585 18.60897923 13.10195585 18.60897923 18 14 C21.625 13.875 21.625 13.875 25 14 C21.22975157 17.92734211 17.11529949 21.44406161 13 25 C14.66681555 28.91133421 17.28372389 31.97065301 20 35.1875 C20.45117188 35.73341797 20.90234375 36.27933594 21.3671875 36.84179688 C23.82188648 39.85242661 23.82188648 39.85242661 27 42 C27 42.66 27 43.32 27 44 C23.92791864 44.35447093 21.06071611 44.50568353 18 44 C15.8125 41.4375 15.8125 41.4375 14 38 C12.07504363 35.59500464 10.03588427 33.31350485 8 31 C8 35.29 8 39.58 8 44 C5.36 44 2.72 44 0 44 C0 29.48 0 14.96 0 0 Z " fill="#134270" transform="translate(48,3)"/>
<path d="M0 0 C1.65 0 3.3 0 5 0 C5 5.61 5 11.22 5 17 C6.98 16.67 8.96 16.34 11 16 C11.0825 15.38125 11.165 14.7625 11.25 14.125 C12 12 12 12 13.8125 10.75 C16 10 16 10 20 10 C19.67 9.34 19.34 8.68 19 8 C17.02 8.33 15.04 8.66 13 9 C13.66 7.68 14.32 6.36 15 5 C19.47580645 4.63709677 19.47580645 4.63709677 21.625 6.125 C23.56467828 8.77001584 23.51299909 10.94178314 23.6875 14.1875 C23.75324219 15.27417969 23.81898438 16.36085938 23.88671875 17.48046875 C23.92410156 18.31191406 23.96148437 19.14335938 24 20 C15.8108425 20.76699602 8.16077367 21.11283277 0 20 C0 13.4 0 6.8 0 0 Z " fill="#D0D4DA" transform="translate(116,29)"/>
<path d="M0 0 C1.32 0 2.64 0 4 0 C4 1.65 4 3.3 4 5 C5.65 5 7.3 5 9 5 C9.66 7.31 10.32 9.62 11 12 C11.99 9.69 12.98 7.38 14 5 C14.99 5 15.98 5 17 5 C16.33392561 9.40958108 14.73375271 13.26572186 12.9375 17.3125 C12.65583984 17.95767578 12.37417969 18.60285156 12.08398438 19.26757812 C11.3937257 20.84698358 10.69746802 22.42376493 10 24 C9.01 23.67 8.02 23.34 7 23 C7.350625 22.443125 7.70125 21.88625 8.0625 21.3125 C9.26793148 18.33910234 8.94370662 17.04889831 8 14 C7.04605164 11.97762948 6.05464649 9.9717304 5 8 C4.67 11.3 4.34 14.6 4 18 C1.03 18 -1.94 18 -5 18 C-5 13.71 -5 9.42 -5 5 C-3.68 5 -2.36 5 -1 5 C-0.67 3.35 -0.34 1.7 0 0 Z " fill="#264E77" transform="translate(165,9)"/>
<path d="M0 0 C8 0 8 0 9.97265625 1.69140625 C11.78597611 5.76620487 11.62118725 9.63757133 11 14 C9.4375 17.0625 9.4375 17.0625 7 19 C4.69 19.33 2.38 19.66 0 20 C0 13.4 0 6.8 0 0 Z " fill="#FCFCFC" transform="translate(12,8)"/>
<path d="M0 0 C1.98 0 3.96 0 6 0 C6.33 9.9 6.66 19.8 7 30 C4.36 30 1.72 30 -1 30 C-0.67 20.1 -0.34 10.2 0 0 Z " fill="#0F3F6E" transform="translate(35,17)"/>
<path d="M0 0 C3.24038731 1.36816353 5.56793753 2.49592712 7.875 5.1875 C9.34682617 8.86706542 9.6769888 12.12823257 9 16 C6.59064944 20.81870112 3.69429982 23.40315329 -1 26 C-1.99 26 -2.98 26 -4 26 C-4.33 24.68 -4.66 23.36 -5 22 C-4.195625 21.54625 -3.39125 21.0925 -2.5625 20.625 C0.08856572 19.25274335 0.08856572 19.25274335 1 17 C1.52274617 11.32016184 1.71435943 6.64294928 -2 2 C-1.34 1.34 -0.68 0.68 0 0 Z " fill="#164573" transform="translate(21,5)"/>
<path d="M0 0 C4.02642005 -0.49303103 7.5420642 -0.86992855 11.12109375 1.265625 C13.54595035 3.34263314 15.56328858 5.12657716 17 8 C17 10.31 17 12.62 17 15 C9.74 15 2.48 15 -5 15 C-5 14.01 -5 13.02 -5 12 C0.28 12 5.56 12 11 12 C9.14527861 6.52696035 9.14527861 6.52696035 4.953125 3.0234375 C2.51064363 2.40412992 2.51064363 2.40412992 -1 2 C-0.67 1.34 -0.34 0.68 0 0 Z " fill="#0A3B6B" transform="translate(86,17)"/>
<path d="M0 0 C12.77777778 0 12.77777778 0 17 1 C18 2 18 2 18.09765625 4.50390625 C18.08605469 5.51324219 18.07445312 6.52257812 18.0625 7.5625 C18.05347656 8.57441406 18.04445312 9.58632813 18.03515625 10.62890625 C18.02355469 11.41136719 18.01195312 12.19382812 18 13 C17.01 13 16.02 13 15 13 C15 9.7 15 6.4 15 3 C13.68 3 12.36 3 11 3 C11 6.3 11 9.6 11 13 C10.01 13 9.02 13 8 13 C8 9.7 8 6.4 8 3 C6.35 3 4.7 3 3 3 C3 6.3 3 9.6 3 13 C2.01 13 1.02 13 0 13 C0 8.71 0 4.42 0 0 Z " fill="#285078" transform="translate(139,14)"/>
<path d="M0 0 C0.99 0 1.98 0 3 0 C3 14.19 3 28.38 3 43 C2.01 43 1.02 43 0 43 C0 28.81 0 14.62 0 0 Z " fill="#A74A43" transform="translate(108,7)"/>
<path d="M0 0 C4.39157409 1.48999835 5.45538087 3.09826173 7.5 7.1875 C7.5 8.1775 7.5 9.1675 7.5 10.1875 C2.22 10.1875 -3.06 10.1875 -8.5 10.1875 C-7.33053163 4.34015814 -6.49425174 0.34790634 0 0 Z " fill="#F2F3F5" transform="translate(89.5,18.8125)"/>
<path d="M0 0 C1.32 0 2.64 0 4 0 C4.99 1.98 5.98 3.96 7 6 C7.66 4.35 8.32 2.7 9 1 C9.99 1.33 10.98 1.66 12 2 C12.33 3.65 12.66 5.3 13 7 C13.66 7 14.32 7 15 7 C15.144375 6.21625 15.28875 5.4325 15.4375 4.625 C16 2 16 2 17 0 C17.99 0.33 18.98 0.66 20 1 C18.35 4.96 16.7 8.92 15 13 C14.01 13 13.02 13 12 13 C11.67 11.35 11.34 9.7 11 8 C10.34 8 9.68 8 9 8 C8.34 9.65 7.68 11.3 7 13 C6.34 13 5.68 13 5 13 C3.35 8.71 1.7 4.42 0 0 Z " fill="#264E76" transform="translate(140,35)"/>
<path d="M0 0 C0.33 0 0.66 0 1 0 C1 5.94 1 11.88 1 18 C-0.98 18 -2.96 18 -5 18 C-5 13.71 -5 9.42 -5 5 C-3.68 5 -2.36 5 -1 5 C-0.67 3.35 -0.34 1.7 0 0 Z " fill="#D5D8DE" transform="translate(165,9)"/>
<path d="M0 0 C2.97 0 5.94 0 9 0 C9 0.66 9 1.32 9 2 C7.02 2 5.04 2 3 2 C3 3.32 3 4.64 3 6 C4.65 6 6.3 6 8 6 C8 6.99 8 7.98 8 9 C6.35 9 4.7 9 3 9 C3 11.64 3 14.28 3 17 C2.01 17 1.02 17 0 17 C0 11.39 0 5.78 0 0 Z " fill="#18436F" transform="translate(117,10)"/>
<path d="M0 0 C2.875 -0.125 2.875 -0.125 6 0 C8.58926331 2.58926331 8.37398043 4.02705279 8.625 7.625 C8.69976562 8.62789062 8.77453125 9.63078125 8.8515625 10.6640625 C8.92503906 11.82035156 8.92503906 11.82035156 9 13 C5.7 13 2.4 13 -1 13 C-1.33 11.35 -1.66 9.7 -2 8 C-1.01 7.67 -0.02 7.34 1 7 C1 8.32 1 9.64 1 11 C2.65 11 4.3 11 6 11 C6 9.35 6 7.7 6 6 C4.68 5.67 3.36 5.34 2 5 C2.99 5 3.98 5 5 5 C5 4.01 5 3.02 5 2 C3.02 2.33 1.04 2.66 -1 3 C-0.67 2.01 -0.34 1.02 0 0 Z " fill="#13416E" transform="translate(128,14)"/>
<path d="M0 0 C4.47971204 -0.3632199 4.47971204 -0.3632199 6.65625 1.15625 C8.53015399 3.72742059 8.29842721 5.5445625 8.1875 8.6875 C8.16042969 9.68136719 8.13335937 10.67523438 8.10546875 11.69921875 C8.07066406 12.45847656 8.03585938 13.21773437 8 14 C5.03 14 2.06 14 -1 14 C-1 13.67 -1 13.34 -1 13 C0.65 12.67 2.3 12.34 4 12 C4.33 10.35 4.66 8.7 5 7 C3.35 7.33 1.7 7.66 0 8 C-0.33 7.34 -0.66 6.68 -1 6 C0.98 5.67 2.96 5.34 5 5 C4.67 4.34 4.34 3.68 4 3 C2.02 3.33 0.04 3.66 -2 4 C-1.34 2.68 -0.68 1.36 0 0 Z " fill="#254B73" transform="translate(131,34)"/>
<path d="M0 0 C0.99 0 1.98 0 3 0 C3 5.28 3 10.56 3 16 C5.31 16 7.62 16 10 16 C10 16.66 10 17.32 10 18 C6.7 18 3.4 18 0 18 C0 12.06 0 6.12 0 0 Z " fill="#093967" transform="translate(117,30)"/>
<path d="M0 0 C2.64 0 5.28 0 8 0 C8 1.65 8 3.3 8 5 C4.75 6.1875 4.75 6.1875 1 7 C-1.4375 5.625 -1.4375 5.625 -3 4 C-2.34 4 -1.68 4 -1 4 C-0.67 2.68 -0.34 1.36 0 0 Z " fill="#365A7F" transform="translate(128,41)"/>
<path d="M0 0 C1.32 0 2.64 0 4 0 C5.25664978 2.90600261 6 4.79604584 6 8 C6.99 8 7.98 8 9 8 C8.34 9.65 7.68 11.3 7 13 C6.34 13 5.68 13 5 13 C3.35 8.71 1.7 4.42 0 0 Z " fill="#184470" transform="translate(140,35)"/>
<path d="M0 0 C1.67542976 0.28604898 3.34385343 0.61781233 5 1 C5 2.65 5 4.3 5 6 C2.625 6.625 2.625 6.625 0 7 C-0.66 6.34 -1.32 5.68 -2 5 C-1.46428571 1.46428571 -1.46428571 1.46428571 0 0 Z " fill="#1E4974" transform="translate(36,5)"/>
<path d="M0 0 C0.99 0 1.98 0 3 0 C3 4.29 3 8.58 3 13 C2.01 13 1.02 13 0 13 C0 8.71 0 4.42 0 0 Z " fill="#073564" transform="translate(160,14)"/>
<path d="M0 0 C2.97 0 5.94 0 9 0 C9 0.66 9 1.32 9 2 C7.02 2 5.04 2 3 2 C3 3.32 3 4.64 3 6 C4.65 6 6.3 6 8 6 C8 6.33 8 6.66 8 7 C5.69 7 3.38 7 1 7 C0.67 4.69 0.34 2.38 0 0 Z " fill="#2E547B" transform="translate(117,10)"/>
<path d="M0 0 C0.66 0 1.32 0 2 0 C2.33 1.65 2.66 3.3 3 5 C3.99 5.33 4.98 5.66 6 6 C3.29120665 7.35439668 0.99066732 7.06501451 -2 7 C-2 3.89448334 -1.4606285 2.64738916 0 0 Z " fill="#EDEEF0" transform="translate(149,43)"/>
<path d="M0 0 C0.33 0.66 0.66 1.32 1 2 C1.66 2 2.32 2 3 2 C3 5.3 3 8.6 3 12 C2.01 12 1.02 12 0 12 C0 8.04 0 4.08 0 0 Z " fill="#0D3965" transform="translate(139,15)"/>
<path d="M0 0 C3.125 0.375 3.125 0.375 6 1 C6 2.65 6 4.3 6 6 C4.35 6 2.7 6 1 6 C0.67 5.01 0.34 4.02 0 3 C-0.66 2.67 -1.32 2.34 -2 2 C-1.34 1.34 -0.68 0.68 0 0 Z " fill="#A0ADBE" transform="translate(128,19)"/>
<path d="M0 0 C0.33 0 0.66 0 1 0 C1.33 2.97 1.66 5.94 2 9 C-0.97 9 -3.94 9 -7 9 C-7 8.67 -7 8.34 -7 8 C-5.35 7.67 -3.7 7.34 -2 7 C-1.34 4.69 -0.68 2.38 0 0 Z " fill="#083969" transform="translate(137,39)"/>
<path d="M0 0 C1.32 0 2.64 0 4 0 C4 1.65 4 3.3 4 5 C2.35 5 0.7 5 -1 5 C-0.67 3.35 -0.34 1.7 0 0 Z " fill="#E4E7EB" transform="translate(132,41)"/>
<path d="M0 0 C0.66 0.33 1.32 0.66 2 1 C3.87379605 1.07033769 5.75001102 1.0843022 7.625 1.0625 C8.62789062 1.05347656 9.63078125 1.04445312 10.6640625 1.03515625 C11.43492187 1.02355469 12.20578125 1.01195312 13 1 C13 1.66 13 2.32 13 3 C8.38 3.33 3.76 3.66 -1 4 C-0.67 2.68 -0.34 1.36 0 0 Z " fill="#DFE1E5" transform="translate(127,46)"/>
<path d="M0 0 C0.99 0 1.98 0 3 0 C2.47731534 2.76276177 1.89130413 5.3260876 1 8 C0.01 8 -0.98 8 -2 8 C-1.34 5.36 -0.68 2.72 0 0 Z " fill="#3D5E81" transform="translate(179,14)"/>
<path d="M0 0 C2.875 -0.1875 2.875 -0.1875 6 0 C6.66 0.99 7.32 1.98 8 3 C7.01 3.66 6.02 4.32 5 5 C5 4.01 5 3.02 5 2 C3.02 2.33 1.04 2.66 -1 3 C-0.67 2.01 -0.34 1.02 0 0 Z " fill="#2D5075" transform="translate(128,14)"/>
<path d="M0 0 C0.33 0.66 0.66 1.32 1 2 C0.3125 4.0625 0.3125 4.0625 -1 6 C-3.125 6.75 -3.125 6.75 -5 7 C-5 5.68 -5 4.36 -5 3 C-2.5 1.25 -2.5 1.25 0 0 Z " fill="#224A74" transform="translate(100,40)"/>
<path d="M0 0 C3.63 0 7.26 0 11 0 C9.515 1.485 9.515 1.485 8 3 C5.15124622 2.79846293 2.74900747 1.85624823 0 1 C0 0.67 0 0.34 0 0 Z " fill="#083B6B" transform="translate(10,5)"/>
<path d="M0 0 C-0.33 0.66 -0.66 1.32 -1 2 C-3.64 2 -6.28 2 -9 2 C-5.96271914 -1.03728086 -4.06215635 -1.35405212 0 0 Z " fill="#083969" transform="translate(96,45)"/>
<path d="M0 0 C0.99 0 1.98 0 3 0 C3 3.63 3 7.26 3 11 C2.67 11 2.34 11 2 11 C2 8.36 2 5.72 2 3 C1.34 3 0.68 3 0 3 C0 2.01 0 1.02 0 0 Z " fill="#254A70" transform="translate(160,14)"/>
</svg>
